<svg xmlns="http://www.w3.org/2000/svg" width="514" height="162" viewBox="0 0 514 162">
  <defs>
    <style>
      .cls-1 {
        fill: red;
      }

      .cls-2 {
        fill: #fff;
      }
    </style>
  </defs>
  <g id="Group_438" data-name="Group 438" transform="translate(-703 -1325)">
    <path id="Path_714" data-name="Path 714" class="cls-1" d="M32.594,32.594A69.642,69.642,0,0,0,55,27.506a69.683,69.683,0,0,0-22.408-5.1A69.681,69.681,0,0,0,27.494,0a69.643,69.643,0,0,0-5.088,22.406A69.643,69.643,0,0,0,0,27.494a69.679,69.679,0,0,0,22.408,5.1A69.681,69.681,0,0,0,27.506,55,69.643,69.643,0,0,0,32.594,32.594Z" transform="translate(1217 1380) rotate(180)"/>
    <path id="Path_716" data-name="Path 716" class="cls-2" d="M20.742,20.742A44.318,44.318,0,0,0,35,17.5,44.343,44.343,0,0,0,20.74,14.26,44.343,44.343,0,0,0,17.5,0a44.318,44.318,0,0,0-3.238,14.258A44.318,44.318,0,0,0,0,17.5,44.342,44.342,0,0,0,14.26,20.74,44.343,44.343,0,0,0,17.5,35,44.318,44.318,0,0,0,20.742,20.742Z" transform="translate(738 1487) rotate(180)"/>
  </g>
</svg>
