<svg xmlns="http://www.w3.org/2000/svg" width="55" height="55" viewBox="0 0 55 55">
  <defs>
    <style>
      .cls-1 {
        fill: red;
      }
    </style>
  </defs>
  <path id="Path_714" data-name="Path 714" class="cls-1" d="M32.594,32.594A69.642,69.642,0,0,0,55,27.506a69.683,69.683,0,0,0-22.408-5.1A69.681,69.681,0,0,0,27.494,0a69.643,69.643,0,0,0-5.088,22.406A69.643,69.643,0,0,0,0,27.494a69.679,69.679,0,0,0,22.408,5.1A69.681,69.681,0,0,0,27.506,55,69.643,69.643,0,0,0,32.594,32.594Z" transform="translate(55 55) rotate(180)"/>
</svg>
