<svg xmlns="http://www.w3.org/2000/svg" width="35" height="35" viewBox="0 0 35 35">
  <defs>
    <style>
      .cls-1 {
        fill: #fff;
      }
    </style>
  </defs>
  <path id="Path_716" data-name="Path 716" class="cls-1" d="M20.742,20.742A44.318,44.318,0,0,0,35,17.5,44.343,44.343,0,0,0,20.74,14.26,44.343,44.343,0,0,0,17.5,0a44.318,44.318,0,0,0-3.238,14.258A44.318,44.318,0,0,0,0,17.5,44.342,44.342,0,0,0,14.26,20.74,44.343,44.343,0,0,0,17.5,35,44.318,44.318,0,0,0,20.742,20.742Z" transform="translate(35 35) rotate(180)"/>
</svg>
