<svg xmlns="http://www.w3.org/2000/svg" width="70" height="70" viewBox="0 0 70 70">
  <defs>
    <style>
      .cls-1 {
        fill: #cdcdcd;
      }
    </style>
  </defs>
  <g id="_001-ads" data-name="001-ads" transform="translate(-4.75 -13.6)">
    <path id="Path_521" data-name="Path 521" class="cls-1" d="M73.716,13.6H5.784A1.136,1.136,0,0,0,4.75,14.815V82.39A1.135,1.135,0,0,0,5.784,83.6H73.716a.962.962,0,0,0,.731-.356,1.331,1.331,0,0,0,.3-.86V14.812A1.134,1.134,0,0,0,73.716,13.6Zm-66.9,2.431H72.682v7.387H6.818Zm0,65.144V25.848H72.682V81.169Z"/>
    <path id="Path_522" data-name="Path 522" class="cls-1" d="M81.7,19.393a1.769,1.769,0,1,0,1.769,1.769A1.769,1.769,0,0,0,81.7,19.393Z" transform="translate(-30.749 -2.403)"/>
    <path id="Path_523" data-name="Path 523" class="cls-1" d="M93.537,19.393a1.769,1.769,0,1,0,1.769,1.769,1.769,1.769,0,0,0-1.769-1.769Z" transform="translate(-35.588 -2.403)"/>
    <path id="Path_524" data-name="Path 524" class="cls-1" d="M105.37,19.393a1.769,1.769,0,1,0,1.769,1.769,1.769,1.769,0,0,0-1.769-1.769Z" transform="translate(-40.348 -2.403)"/>
    <path id="Path_525" data-name="Path 525" class="cls-1" d="M31.794,58.83,25.343,73.166h2.744L29.5,69.848h7.17L38.1,73.166h2.785L34.416,58.83ZM30.4,67.759l2.683-6.267,2.7,6.267Z" transform="translate(-8.395 -12.233)"/>
    <path id="Path_526" data-name="Path 526" class="cls-1" d="M65.366,59.72a8.992,8.992,0,0,0-4.076-.891H55.022V73.165h6.267a9,9,0,0,0,4.077-.891,6.6,6.6,0,0,0,2.764-2.521,7.676,7.676,0,0,0,0-7.517A6.59,6.59,0,0,0,65.366,59.72Zm.42,8.868a4.319,4.319,0,0,1-1.843,1.72,6.08,6.08,0,0,1-2.775.6H57.686v-9.83h3.482a6.08,6.08,0,0,1,2.775.6,4.322,4.322,0,0,1,1.843,1.72,5.524,5.524,0,0,1,0,5.182Z" transform="translate(-20.504 -12.232)"/>
    <path id="Path_527" data-name="Path 527" class="cls-1" d="M90.839,65.533a19.6,19.6,0,0,0-2.621-.768q-1.167-.287-1.844-.512a3.178,3.178,0,0,1-1.116-.614,1.277,1.277,0,0,1-.441-1,1.643,1.643,0,0,1,.768-1.413,4.149,4.149,0,0,1,2.345-.532,7.376,7.376,0,0,1,1.987.287,8.268,8.268,0,0,1,1.965.84l.84-2.069a7.152,7.152,0,0,0-2.191-.942,10.3,10.3,0,0,0-2.58-.328,7.885,7.885,0,0,0-3.185.573A4.36,4.36,0,0,0,82.819,60.6a3.824,3.824,0,0,0-.644,2.16A3.284,3.284,0,0,0,82.9,65a4.36,4.36,0,0,0,1.741,1.218A21.451,21.451,0,0,0,87.295,67q1.17.287,1.843.512a3.093,3.093,0,0,1,1.115.626,1.311,1.311,0,0,1,.44,1.014,1.551,1.551,0,0,1-.788,1.352,4.442,4.442,0,0,1-2.386.512,7.852,7.852,0,0,1-2.57-.441,7.243,7.243,0,0,1-2.161-1.136L81.866,71.5a6.686,6.686,0,0,0,2.448,1.249,10.952,10.952,0,0,0,3.2.471,7.95,7.95,0,0,0,3.195-.573,4.388,4.388,0,0,0,1.956-1.536,3.775,3.775,0,0,0,.644-2.15,3.213,3.213,0,0,0-.727-2.212A4.5,4.5,0,0,0,90.839,65.533Z" transform="translate(-31.477 -12.076)"/>
  </g>
</svg>
