<svg id="_002-social-media" data-name="002-social-media" xmlns="http://www.w3.org/2000/svg" width="70" height="70" viewBox="0 0 70 70">
  <defs>
    <style>
      .cls-1 {
        fill: #cdcdcd;
      }
    </style>
  </defs>
  <g id="Group_250" data-name="Group 250" transform="translate(23 6)">
    <g id="Group_249" data-name="Group 249" transform="translate(0 0)">
      <rect id="Rectangle_62" data-name="Rectangle 62" class="cls-1" width="24" height="2"/>
    </g>
  </g>
  <g id="Group_252" data-name="Group 252" transform="translate(15.167 23.333)">
    <g id="Group_251" data-name="Group 251">
      <path id="Path_528" data-name="Path 528" class="cls-1" d="M146.583,180.417a4.088,4.088,0,0,0-4.083-4.083h-2.333V160h-2.333v16.333h-2.917a4.077,4.077,0,0,0-2.849,7,4.035,4.035,0,0,0-.614,5.056,4.08,4.08,0,0,0-2.371,3.694,4.036,4.036,0,0,0,.41,1.75h-9.16a10.5,10.5,0,0,0-4.514-8.622,7.012,7.012,0,0,0,4.514-6.544,1.166,1.166,0,0,0-1.167-1.167h-9.333V165.833H107.5V177.5A3.5,3.5,0,0,0,104,181v25.667h2.333V181a1.168,1.168,0,0,1,1.167-1.167h10.352a4.674,4.674,0,0,1-4.519,3.5h-3.5a1.167,1.167,0,1,0,0,2.333A8.176,8.176,0,0,1,118,193.833V195a1.166,1.166,0,0,0,1.167,1.167h6.826a4.036,4.036,0,0,0-.41,1.75A4.088,4.088,0,0,0,129.667,202v4.667H132V202h5.25a4.088,4.088,0,0,0,4.083-4.083,4.034,4.034,0,0,0-.419-1.767,4.052,4.052,0,0,0,3.3-6.206,4.063,4.063,0,0,0,1.136-6.611A4.067,4.067,0,0,0,146.583,180.417Zm-9.333,19.25h-7.583a1.75,1.75,0,1,1,0-3.5h7.583a1.75,1.75,0,0,1,0,3.5Zm3.5-5.833h-7.583a1.75,1.75,0,0,1,0-3.5h7.583a1.75,1.75,0,0,1,0,3.5ZM142.5,188h-7.583a1.75,1.75,0,0,1,0-3.5H142.5a1.75,1.75,0,0,1,0,3.5Zm0-5.833h-7.583a1.75,1.75,0,0,1,0-3.5H142.5a1.75,1.75,0,0,1,0,3.5Z" transform="translate(-104 -160)"/>
    </g>
  </g>
  <g id="Group_254" data-name="Group 254" transform="translate(4.667 10.5)">
    <g id="Group_253" data-name="Group 253">
      <path id="Path_529" data-name="Path 529" class="cls-1" d="M44.83,76.35a1.166,1.166,0,0,0-.458-.847l-1.215-.921a3.184,3.184,0,0,0-6.311.583,6.772,6.772,0,0,1-2.62-1.058l-.407-.275A1.166,1.166,0,0,0,32,74.8v.957a6.738,6.738,0,0,0,1.21,3.873l-.873.883a1.166,1.166,0,0,0,.829,1.987H38.82a4.417,4.417,0,0,0,4.369-3.924L44.5,77.253A1.168,1.168,0,0,0,44.83,76.35Zm-3.608.9a1.165,1.165,0,0,0-.337.82,2.085,2.085,0,0,1-2.064,2.1H35.852a1.168,1.168,0,0,0-.24-1.287,4.462,4.462,0,0,1-1.131-1.993,9.074,9.074,0,0,0,3.533.713,1.166,1.166,0,0,0,1.167-1.167V75.208a.853.853,0,1,1,1.7,0,1.167,1.167,0,0,0,.461.93l.556.421Z" transform="translate(-32 -72)"/>
    </g>
  </g>
  <g id="Group_256" data-name="Group 256" transform="translate(31.5 17.5)">
    <g id="Group_255" data-name="Group 255">
      <path id="Path_530" data-name="Path 530" class="cls-1" d="M223,122.333V120h-3.5a1.166,1.166,0,0,0-1.167,1.167v3.5H216V127h2.333v4.667h2.333V127H223v-2.333h-2.333v-2.333Z" transform="translate(-216 -120)"/>
    </g>
  </g>
  <g id="Group_258" data-name="Group 258" transform="translate(24.5 12.833)">
    <g id="Group_257" data-name="Group 257">
      <path id="Path_531" data-name="Path 531" class="cls-1" d="M185.5,88h-14a3.5,3.5,0,0,0-3.5,3.5v14a3.5,3.5,0,0,0,3.5,3.5h14a3.5,3.5,0,0,0,3.5-3.5v-14A3.5,3.5,0,0,0,185.5,88Zm1.167,17.5a1.168,1.168,0,0,1-1.167,1.167h-14a1.168,1.168,0,0,1-1.167-1.167v-14a1.168,1.168,0,0,1,1.167-1.167h14a1.168,1.168,0,0,1,1.167,1.167Z" transform="translate(-168 -88)"/>
    </g>
  </g>
  <g id="Group_260" data-name="Group 260" transform="translate(0 5.833)">
    <g id="Group_259" data-name="Group 259">
      <path id="Path_532" data-name="Path 532" class="cls-1" d="M17.5,40H3.5A3.5,3.5,0,0,0,0,43.5v14A3.5,3.5,0,0,0,3.5,61h14A3.5,3.5,0,0,0,21,57.5v-14A3.5,3.5,0,0,0,17.5,40Zm1.167,17.5A1.168,1.168,0,0,1,17.5,58.667H3.5A1.168,1.168,0,0,1,2.333,57.5v-14A1.168,1.168,0,0,1,3.5,42.333h14A1.168,1.168,0,0,1,18.667,43.5Z" transform="translate(0 -40)"/>
    </g>
  </g>
  <g id="Group_262" data-name="Group 262" transform="translate(49)">
    <g id="Group_261" data-name="Group 261">
      <path id="Path_533" data-name="Path 533" class="cls-1" d="M353.5,0h-14A3.5,3.5,0,0,0,336,3.5v14a3.5,3.5,0,0,0,3.5,3.5h14a3.5,3.5,0,0,0,3.5-3.5V3.5A3.5,3.5,0,0,0,353.5,0Zm1.167,17.5a1.168,1.168,0,0,1-1.167,1.167h-14a1.168,1.168,0,0,1-1.167-1.167V11.667h2.451a5.833,5.833,0,0,0,11.431,0h2.451ZM343,10.5a3.5,3.5,0,1,1,3.5,3.5A3.5,3.5,0,0,1,343,10.5Zm11.667-1.167h-2.451a5.833,5.833,0,0,0-11.431,0h-2.451V3.5A1.168,1.168,0,0,1,339.5,2.333h14A1.168,1.168,0,0,1,354.667,3.5Z" transform="translate(-336)"/>
    </g>
  </g>
  <g id="Group_264" data-name="Group 264" transform="translate(34 48)">
    <g id="Group_263" data-name="Group 263" transform="translate(0 0)">
      <rect id="Rectangle_63" data-name="Rectangle 63" class="cls-1" width="2" height="2"/>
    </g>
  </g>
</svg>
