<svg xmlns="http://www.w3.org/2000/svg" width="70" height="70" viewBox="0 0 70 70">
  <defs>
    <style>
      .cls-1 {
        fill: #fff;
      }
    </style>
  </defs>
  <g id="_001-vector" data-name="001-vector" transform="translate(-8 -8)">
    <path id="Path_401" data-name="Path 401" class="cls-1" d="M198.379,207.164l-10.161-14.677a1.129,1.129,0,0,0-1.857,0L176.2,207.164a1.128,1.128,0,0,0-.143,1l2.892,8.675h-.692a1.129,1.129,0,0,0-1.129,1.129v3.387a1.129,1.129,0,0,0,1.129,1.129h1.129V234.9a1.129,1.129,0,0,0,1.129,1.129h13.548a1.129,1.129,0,0,0,1.129-1.129V222.484h1.129a1.129,1.129,0,0,0,1.129-1.129v-3.387a1.129,1.129,0,0,0-1.129-1.129h-.692l2.892-8.675A1.128,1.128,0,0,0,198.379,207.164Zm-11.09-1.616a1.129,1.129,0,1,1-1.129,1.129A1.129,1.129,0,0,1,187.289,205.548Zm5.645,28.226h-11.29v-11.29h11.29Zm2.258-13.548H179.386V219.1h15.806Zm-1.943-3.387h-11.92l-2.952-8.853,7.783-11.242v6.547a1.194,1.194,0,0,0,.017.189,3.387,3.387,0,1,0,2.224,0,1.192,1.192,0,0,0,.017-.189v-6.547l7.783,11.242Z" transform="translate(-144.289 -158.032)"/>
    <path id="Path_402" data-name="Path 402" class="cls-1" d="M76.871,20.419H72.355a1.129,1.129,0,0,0-1.129,1.129v1.139a1.164,1.164,0,0,0-.141-.01h-24.7V21.548a1.129,1.129,0,0,0-1.129-1.129H44.129V14.774h1.129a1.129,1.129,0,0,0,1.129-1.129V9.129A1.129,1.129,0,0,0,45.258,8H40.742a1.129,1.129,0,0,0-1.129,1.129v4.516a1.129,1.129,0,0,0,1.129,1.129h1.129v5.645H40.742a1.129,1.129,0,0,0-1.129,1.129v1.129H14.774V21.548a1.129,1.129,0,0,0-1.129-1.129H9.129A1.129,1.129,0,0,0,8,21.548v4.516a1.129,1.129,0,0,0,1.129,1.129h4.516a1.129,1.129,0,0,0,1.129-1.129V24.935H33.44a17.661,17.661,0,0,0-3.95,3.578,19.631,19.631,0,0,0-4.554,12.229H23.806a1.129,1.129,0,0,0-1.129,1.129v4.516a1.129,1.129,0,0,0,1.129,1.129h4.516a1.129,1.129,0,0,0,1.129-1.129V41.871a1.129,1.129,0,0,0-1.129-1.129H27.194c0-8.372,6.441-14.975,12.419-15.733v1.056a1.129,1.129,0,0,0,1.129,1.129h4.516a1.129,1.129,0,0,0,1.129-1.129V25c3.057.363,5.991,2.195,8.359,5.25a19.818,19.818,0,0,1,4.021,10.487h-1.09a1.129,1.129,0,0,0-1.129,1.129v4.516a1.129,1.129,0,0,0,1.129,1.129h4.516a1.129,1.129,0,0,0,1.129-1.129V41.871a1.129,1.129,0,0,0-1.129-1.129H61.029a21.8,21.8,0,0,0-4.5-11.872,17.838,17.838,0,0,0-4.149-3.935h18.7a1.166,1.166,0,0,0,.141-.01v1.139a1.129,1.129,0,0,0,1.129,1.129h4.516A1.129,1.129,0,0,0,78,26.065V21.548A1.129,1.129,0,0,0,76.871,20.419ZM12.516,24.935H10.258V22.677h2.258ZM27.194,45.258H24.935V43h2.258Zm14.677-35h2.258v2.258H41.871Zm2.258,14.677H41.871V22.677h2.258ZM58.806,43h2.258v2.258H58.806ZM75.742,24.935H73.484V22.677h2.258Z" transform="translate(0 0)"/>
  </g>
</svg>
