<svg xmlns="http://www.w3.org/2000/svg" width="30" height="30" viewBox="0 0 30 30">
  <defs>
    <style>
      .cls-1 {
        fill: #fff;
      }
    </style>
  </defs>
  <path id="_022-dribbble" data-name="022-dribbble" class="cls-1" d="M15.059,30a15,15,0,0,0,0-30A15.14,15.14,0,0,0,0,15.059,15.036,15.036,0,0,0,15.059,30ZM7.347,25.794c1.089-4.151,4.969-7.528,9.933-9.024a41.106,41.106,0,0,1,2.1,10.744,13.13,13.13,0,0,1-4.321.728,13.309,13.309,0,0,1-7.712-2.448Zm13.746.984A42.558,42.558,0,0,0,19,16.336a20.05,20.05,0,0,1,9.145.279,13.213,13.213,0,0,1-7.057,10.163ZM17.4,12.267c2.982-1.111,6.144-2.955,7.864-5.618a13.307,13.307,0,0,1,2.975,8.172,21.957,21.957,0,0,0-9.836-.162c-.319-.834-.642-1.6-1-2.392Zm6.618-6.955c-1.427,2.581-4.622,4.357-7.384,5.365A38.55,38.55,0,0,0,10.988,2.4a13.251,13.251,0,0,1,4.071-.638,13.072,13.072,0,0,1,8.96,3.554ZM9.248,3.1a36.78,36.78,0,0,1,5.68,8.136,33.1,33.1,0,0,1-12.856.948A13.351,13.351,0,0,1,9.248,3.1ZM1.807,13.918a34.763,34.763,0,0,0,13.9-1.085q.515,1.118.964,2.272c-4.83,1.464-9.205,4.763-10.8,9.481a13.093,13.093,0,0,1-4.117-9.527c0-.384.017-.764.049-1.14Zm0,0"/>
</svg>
