<svg id="_025-instagram" data-name="025-instagram" xmlns="http://www.w3.org/2000/svg" width="30" height="30" viewBox="0 0 30 30">
  <defs>
    <style>
      .cls-1 {
        fill: #fff;
      }
    </style>
  </defs>
  <path id="Path_4" data-name="Path 4" class="cls-1" d="M4.395,30H25.605A4.4,4.4,0,0,0,30,25.605V4.395A4.4,4.4,0,0,0,25.605,0H4.395A4.4,4.4,0,0,0,0,4.395V25.605A4.4,4.4,0,0,0,4.395,30ZM1.758,4.395A2.64,2.64,0,0,1,4.395,1.758H25.605a2.64,2.64,0,0,1,2.637,2.637V25.605a2.64,2.64,0,0,1-2.637,2.637H4.395a2.64,2.64,0,0,1-2.637-2.637Zm0,0"/>
  <path id="Path_5" data-name="Path 5" class="cls-1" d="M128.91,136.82a7.91,7.91,0,1,0-7.91-7.91A7.919,7.919,0,0,0,128.91,136.82Zm0-14.063a6.152,6.152,0,1,1-6.152,6.152A6.159,6.159,0,0,1,128.91,122.758Zm0,0" transform="translate(-113.91 -113.91)"/>
  <path id="Path_6" data-name="Path 6" class="cls-1" d="M363.637,66.273A2.637,2.637,0,1,0,361,63.637,2.64,2.64,0,0,0,363.637,66.273Zm0-3.516a.879.879,0,1,1-.879.879A.88.88,0,0,1,363.637,62.758Zm0,0" transform="translate(-339.848 -57.426)"/>
</svg>
