<svg xmlns="http://www.w3.org/2000/svg" width="351.991" height="149.561" viewBox="0 0 351.991 149.561">
  <defs>
    <style>
      .cls-1 {
        fill: none;
      }

      .cls-2, .cls-3 {
        stroke: none;
      }

      .cls-3 {
        fill: red;
      }
    </style>
  </defs>
  <g id="arces" transform="translate(393.49 572.92) rotate(-159)">
    <g id="Path_712" data-name="Path 712" class="cls-1" transform="translate(206.165 374.192) rotate(-8)">
      <path class="cls-2" d="M168.813.482c93.886,2.8,170.54,21.7,171.211,42.214s-74.895,34.886-168.781,32.09S.7,53.091.033,32.573,74.927-2.313,168.813.482Z"/>
      <path class="cls-3" d="M 145.6599273681641 2.134750366210938 C 128.2370147705078 2.134750366210938 111.39501953125 2.738662719726562 95.60183715820312 3.929656982421875 C 80.21432495117188 5.090065002441406 66.08401489257812 6.786567687988281 53.60342407226562 8.971977233886719 C 41.20388793945312 11.14320373535156 30.70465087890625 13.74847793579102 22.3973388671875 16.71552276611328 C 18.26327514648438 18.19202423095703 14.67987060546875 19.76061248779297 11.7467041015625 21.37775039672852 C 8.8465576171875 22.97665786743164 6.553436279296875 24.63738632202148 4.930877685546875 26.3138427734375 C 2.939910888671875 28.37102127075195 1.9644775390625 30.45484161376953 2.03155517578125 32.50747680664062 C 2.16864013671875 36.69924926757812 6.587890625 41.25088500976562 14.81143188476562 45.67024993896484 C 19.05206298828125 47.94915771484375 24.29833984375 50.18697738647461 30.40457153320312 52.32157135009766 C 36.49093627929688 54.44920349121094 43.47445678710938 56.48897552490234 51.16116333007812 58.38420486450195 C 66.80709838867188 62.2419319152832 84.99501037597656 65.44747924804688 105.2197418212891 67.91175079345703 C 126.1806945800781 70.46579742431641 148.4142456054688 72.10633850097656 171.3027954101562 72.78788757324219 C 179.0323333740234 73.01806640625 186.8022003173828 73.13475036621094 194.3965148925781 73.13475036621094 C 211.8194274902344 73.13475036621094 228.661376953125 72.53083801269531 244.4545593261719 71.33984375 C 259.8420715332031 70.17943572998047 273.9723815917969 68.48297882080078 286.4529724121094 66.29752349853516 C 298.8525085449219 64.1263427734375 309.3517456054688 61.52102279663086 317.6590576171875 58.55402374267578 C 321.7931213378906 57.07752227783203 325.37646484375 55.50893402099609 328.3096618652344 53.89179611206055 C 331.2097778320312 52.29288482666016 333.5029602050781 50.63211441040039 335.1254577636719 48.95565795898438 C 337.1164855957031 46.89852142333984 338.0919189453125 44.81465911865234 338.0248413085938 42.76202392578125 C 337.8877563476562 38.57020568847656 333.468505859375 34.01861572265625 325.2449645996094 29.59925079345703 C 321.0043334960938 27.32029724121094 315.758056640625 25.08247756958008 309.6518249511719 22.94793319702148 C 303.5654602050781 20.82029724121094 296.5819091796875 18.78052139282227 288.8952331542969 16.88525009155273 C 273.2492980957031 13.02756881713867 255.0613708496094 9.822021484375 234.8366546630859 7.357704162597656 C 213.8757019042969 4.803703308105469 191.6421508789062 3.163116455078125 168.7536010742188 2.481613159179688 C 161.0240631103516 2.251434326171875 153.2541961669922 2.134750366210938 145.6599273681641 2.134750366210938 M 145.6599426269531 0.1347503662109375 C 153.2310180664062 0.1347503662109375 160.9511260986328 0.2483673095703125 168.8131561279297 0.4824752807617188 C 262.6990966796875 3.278068542480469 339.3526916503906 22.17802429199219 340.0237426757812 42.69665908813477 C 340.6386108398438 61.49710083007812 277.2369079589844 75.13475036621094 194.3964996337891 75.13475036621094 C 186.8254241943359 75.13475036621094 179.1052703857422 75.02113342285156 171.2432403564453 74.78702545166016 C 77.3572998046875 71.99138641357422 0.703704833984375 53.09147644042969 0.03265380859375 32.57284164428711 C -0.58221435546875 13.77244186401367 62.81948852539062 0.1347503662109375 145.6599426269531 0.1347503662109375 Z"/>
    </g>
    <g id="Path_713" data-name="Path 713" class="cls-1" transform="matrix(-0.966, 0.259, -0.259, -0.966, 558.004, 377.472)">
      <path class="cls-2" d="M167.857,1.186C261.737,5.979,338.817,26.194,340.02,46.337s-73.927,32.588-167.808,27.8S1.252,49.124.049,28.981,73.976-3.607,167.857,1.186Z"/>
      <path class="cls-3" d="M 128.4211120605469 2.159049987792969 C 97.25442504882812 2.159049987792969 69.0538330078125 4.179458618164062 46.8681640625 8.001815795898438 C 36.00155639648438 9.874046325683594 26.83560180664062 12.13809204101562 19.62493896484375 14.7310905456543 C 12.45166015625 17.31063842773438 7.374053955078125 20.14763641357422 4.533111572265625 23.16327285766602 C 2.743621826171875 25.06282043457031 1.92987060546875 26.92677307128906 2.045440673828125 28.86159133911133 C 2.291961669921875 32.99022674560547 6.843505859375 37.56850051879883 15.20806884765625 42.10145568847656 C 19.510009765625 44.43277359008789 24.81582641601562 46.74531936645508 30.97811889648438 48.97477340698242 C 37.11782836914062 51.19609069824219 44.15164184570312 53.35059356689453 51.88418579101562 55.37854766845703 C 67.62066650390625 59.50554656982422 85.87997436523438 63.04809188842773 106.1549224853516 65.90773010253906 C 127.1666107177734 68.87123107910156 149.4260559082031 70.96636199951172 172.3148803710938 72.13491058349609 C 185.6258392333984 72.81449890136719 198.8595123291016 73.15904235839844 211.6483764648438 73.15904235839844 C 242.8151092529297 73.15904235839844 271.0156555175781 71.13863372802734 293.2013244628906 67.31627655029297 C 304.0679321289062 65.44404602050781 313.2338256835938 63.18000030517578 320.4445190429688 60.58700180053711 C 327.6177978515625 58.00745391845703 332.6953735351562 55.17045593261719 335.5362854003906 52.15481948852539 C 337.3258361816406 50.25527191162109 338.1395263671875 48.39131927490234 338.0239868164062 46.45650100708008 C 337.7774353027344 42.32786560058594 333.2258911132812 37.74959182739258 324.861328125 33.21663665771484 C 320.5594177246094 30.88531875610352 315.2536010742188 28.57277297973633 309.0912780761719 26.34331893920898 C 302.9515991210938 24.12200164794922 295.9177856445312 21.96750259399414 288.1852416992188 19.93954467773438 C 272.4487915039062 15.81254577636719 254.1894683837891 12.27000045776367 233.9145202636719 9.410362243652344 C 212.90283203125 6.446861267089844 190.6434326171875 4.351730346679688 167.7546081542969 3.183181762695312 C 154.4436492919922 2.503593444824219 141.2099761962891 2.159049987792969 128.4211120605469 2.159049987792969 M 128.4211120605469 0.1590347290039062 C 141.0568084716797 0.1590347290039062 154.2592468261719 0.4915924072265625 167.8565673828125 1.185775756835938 C 261.7371215820312 5.9786376953125 338.8174743652344 26.19363784790039 340.0204162597656 46.33727264404297 C 341.2234802246094 66.48091125488281 266.0933532714844 78.92517852783203 172.2129211425781 74.13231658935547 C 78.33236694335938 69.33945465087891 1.251922607421875 49.12445449829102 0.048980712890625 28.98081970214844 C -0.979736328125 11.75471496582031 53.81573486328125 0.1590347290039062 128.4211120605469 0.1590347290039062 Z"/>
    </g>
  </g>
</svg>
