<svg xmlns="http://www.w3.org/2000/svg" xmlns:xlink="http://www.w3.org/1999/xlink" width="809" height="583" viewBox="0 0 809 583">
  <defs>
    <style>
      .cls-1 {
        fill: #fff;
        stroke: #707070;
        opacity: 0.03;
      }

      .cls-2 {
        clip-path: url(#clip-path);
      }

      .cls-3, .cls-4 {
        fill: url(#linear-gradient);
      }

      .cls-11, .cls-4 {
        opacity: 0.3;
      }

      .cls-14, .cls-16, .cls-5, .cls-6 {
        fill: #e8975b;
      }

      .cls-6 {
        opacity: 0.4;
      }

      .cls-7 {
        fill: url(#radial-gradient);
      }

      .cls-8 {
        fill: url(#radial-gradient-2);
      }

      .cls-14, .cls-15, .cls-9 {
        opacity: 0.5;
      }

      .cls-9 {
        fill: url(#radial-gradient-3);
      }

      .cls-10 {
        fill: url(#radial-gradient-4);
      }

      .cls-11 {
        fill: url(#radial-gradient-5);
      }

      .cls-12 {
        fill: url(#radial-gradient-6);
      }

      .cls-13 {
        fill: #020230;
      }

      .cls-13, .cls-16 {
        opacity: 0.6;
      }

      .cls-15, .cls-17 {
        fill: #e82b88;
      }
    </style>
    <clipPath id="clip-path">
      <rect id="Rectangle_29" data-name="Rectangle 29" class="cls-1" width="809" height="583"/>
    </clipPath>
    <linearGradient id="linear-gradient" y1="0.5" x2="1" y2="0.5" gradientUnits="objectBoundingBox">
      <stop offset="0" stop-color="#e39a65"/>
      <stop offset="1" stop-color="#e95f8d"/>
    </linearGradient>
    <radialGradient id="radial-gradient" cx="-0.009" cy="0.161" r="2.801" gradientTransform="translate(0.315) scale(0.37 1)" gradientUnits="objectBoundingBox">
      <stop offset="0.004" stop-color="#4c02f1"/>
      <stop offset="0.008" stop-color="#4b02ef"/>
      <stop offset="0.126" stop-color="#3802c3"/>
      <stop offset="0.249" stop-color="#29029e"/>
      <stop offset="0.377" stop-color="#1c037f"/>
      <stop offset="0.51" stop-color="#120367"/>
      <stop offset="0.651" stop-color="#0b0357"/>
      <stop offset="0.806" stop-color="#07034d"/>
      <stop offset="1" stop-color="#06044a"/>
    </radialGradient>
    <radialGradient id="radial-gradient-2" cx="0.865" cy="1.158" r="2.776" gradientTransform="translate(0.313) scale(0.374 1)" xlink:href="#radial-gradient"/>
    <radialGradient id="radial-gradient-3" cx="0.11" cy="-0.227" r="2.045" gradientTransform="translate(0.211) scale(0.577 1)" gradientUnits="objectBoundingBox">
      <stop offset="0" stop-color="#e39a65"/>
      <stop offset="0.474" stop-color="#a92ffb"/>
      <stop offset="0.588" stop-color="#881bfa"/>
      <stop offset="0.726" stop-color="#6507fa"/>
      <stop offset="1" stop-color="#3919bb"/>
    </radialGradient>
    <radialGradient id="radial-gradient-4" cx="0.11" cy="-0.227" r="2.045" xlink:href="#radial-gradient-3"/>
    <radialGradient id="radial-gradient-5" cx="0.11" cy="-0.227" r="2.165" gradientTransform="translate(0.236) scale(0.528 1)" xlink:href="#radial-gradient-3"/>
    <radialGradient id="radial-gradient-6" cx="1.012" cy="0.978" r="2.289" gradientTransform="translate(0.192) scale(0.615 1)" xlink:href="#radial-gradient-3"/>
  </defs>
  <g id="Mask_Group_4" data-name="Mask Group 4" class="cls-2">
    <g id="Group_87" data-name="Group 87" transform="translate(14 88)">
      <path id="Path_244" data-name="Path 244" class="cls-3" d="M503.763,274.173a12.857,12.857,0,0,1-6.435-1.717h0l-21.7-12.527a4.016,4.016,0,0,1,0-6.96l21.694-12.526a12.9,12.9,0,0,1,12.869,0l21.7,12.526a4.016,4.016,0,0,1,0,6.96L510.2,272.456A12.856,12.856,0,0,1,503.763,274.173Zm-4.716-4.7a9.457,9.457,0,0,0,9.431,0l21.7-12.526a.579.579,0,0,0,0-1l-21.7-12.527a9.461,9.461,0,0,0-9.431,0l-21.7,12.527a.579.579,0,0,0,0,1Z" transform="translate(240.529 -30.839)"/>
      <path id="Path_245" data-name="Path 245" class="cls-4" d="M316.606,350.077,279.267,328.52a3.954,3.954,0,0,1,0-6.849L316.6,300.116a19.184,19.184,0,0,1,19.189,0l37.336,21.556a3.954,3.954,0,0,1,0,6.851L335.8,350.077A19.193,19.193,0,0,1,316.606,350.077Z" transform="translate(111.94 19.07)"/>
      <path id="Path_246" data-name="Path 246" class="cls-3" d="M153.947,312.846a35.5,35.5,0,0,1-17.764-4.747l-64.94-37.492a9.035,9.035,0,0,1,0-15.648l64.937-37.49a35.62,35.62,0,0,1,35.53,0l64.94,37.492a9.034,9.034,0,0,1,0,15.646L171.712,308.1A35.509,35.509,0,0,1,153.947,312.846Zm0-95.812a31.211,31.211,0,0,0-15.609,4.168L73.4,258.693a4.723,4.723,0,0,0,0,8.18l64.94,37.493h0a31.305,31.305,0,0,0,31.218,0l64.938-37.493a4.722,4.722,0,0,0,0-8.178L169.554,221.2A31.212,31.212,0,0,0,153.944,217.033Z" transform="translate(-66.727 -52.901)"/>
      <path id="Path_247" data-name="Path 247" class="cls-4" d="M196.026,213.748l-52.858-30.519a5.6,5.6,0,0,1,0-9.7l52.856-30.517a27.159,27.159,0,0,1,27.166,0l52.86,30.517a5.6,5.6,0,0,1,0,9.7l-52.858,30.517A27.167,27.167,0,0,1,196.026,213.748Z" transform="translate(-4.241 -115.138)"/>
      <g id="Group_77" data-name="Group 77" transform="translate(514.749)">
        <g id="Group_75" data-name="Group 75" transform="translate(61.555)">
          <path id="Path_248" data-name="Path 248" class="cls-5" d="M450.029,128.381a9.751,9.751,0,0,1,8.823,0l4.344,2.529c2.436,1.407,2.436,3.688,0,5.094a9.75,9.75,0,0,1-8.823,0l-4.344-2.529C447.591,132.069,447.591,129.788,450.029,128.381Z" transform="translate(-319.344 -125.362)"/>
          <path id="Path_249" data-name="Path 249" class="cls-5" d="M427.712,127.318a9.756,9.756,0,0,1,8.823,0l26.691,15.411c2.436,1.4,2.436,3.688,0,5.093a9.745,9.745,0,0,1-8.823,0l-26.691-15.409C425.274,131.006,425.274,128.727,427.712,127.318Z" transform="translate(-338.281 -126.264)"/>
          <path id="Path_250" data-name="Path 250" class="cls-5" d="M383.209,160.679a9.75,9.75,0,0,1,8.823,0L406.448,169c2.436,1.407,2.436,3.688,0,5.094a9.756,9.756,0,0,1-8.823,0l-14.417-8.324C380.772,164.367,380.772,162.086,383.209,160.679Z" transform="translate(-376.041 -97.957)"/>
          <path id="Path_251" data-name="Path 251" class="cls-6" d="M394.412,155.336a9.751,9.751,0,0,1,8.823,0l12.616,7.283c2.436,1.407,2.436,3.688,0,5.095a9.75,9.75,0,0,1-8.823,0l-12.616-7.283C391.976,159.024,391.974,156.743,394.412,155.336Z" transform="translate(-366.536 -102.49)"/>
          <path id="Path_252" data-name="Path 252" class="cls-6" d="M380.321,135.36a9.75,9.75,0,0,1,8.823,0l57.57,33.294c2.436,1.407,2.436,3.688,0,5.095a9.751,9.751,0,0,1-8.823,0L380.32,140.455C377.883,139.046,377.883,136.767,380.321,135.36Z" transform="translate(-378.493 -119.44)"/>
          <path id="Path_253" data-name="Path 253" class="cls-5" d="M410.314,140.9a9.756,9.756,0,0,1,8.823,0l21.036,12.145c2.436,1.407,2.436,3.688,0,5.094a9.744,9.744,0,0,1-8.823,0l-21.036-12.145C407.877,144.584,407.877,142.3,410.314,140.9Z" transform="translate(-353.042 -114.743)"/>
          <path id="Path_254" data-name="Path 254" class="cls-5" d="M425.1,137.62a9.754,9.754,0,0,1,8.825,0l12.614,7.283c2.436,1.407,2.436,3.688,0,5.095a9.75,9.75,0,0,1-8.823,0L425.1,142.715C422.662,141.308,422.66,139.027,425.1,137.62Z" transform="translate(-340.498 -117.523)"/>
        </g>
        <g id="Group_76" data-name="Group 76" transform="translate(0 47.6)">
          <path id="Path_255" data-name="Path 255" class="cls-5" d="M388.658,163.806a9.75,9.75,0,0,1,8.823,0l4.344,2.529c2.436,1.407,2.436,3.688,0,5.094a9.75,9.75,0,0,1-8.823,0l-4.344-2.529C386.22,167.494,386.22,165.215,388.658,163.806Z" transform="translate(-309.863 -142.903)"/>
          <path id="Path_256" data-name="Path 256" class="cls-6" d="M349.635,153.07a9.745,9.745,0,0,1,8.823,0l57.572,33.294c2.436,1.407,2.436,3.688,0,5.095a9.756,9.756,0,0,1-8.823,0l-57.572-33.294C347.2,156.756,347.2,154.476,349.635,153.07Z" transform="translate(-342.974 -152.014)"/>
          <path id="Path_257" data-name="Path 257" class="cls-5" d="M347.019,163.37a9.754,9.754,0,0,1,8.825,0l43.5,25.168c2.436,1.407,2.436,3.688,0,5.094a9.751,9.751,0,0,1-8.823,0l-43.5-25.168C344.585,167.058,344.583,164.777,347.019,163.37Z" transform="translate(-345.193 -143.273)"/>
        </g>
      </g>
      <g id="Group_80" data-name="Group 80" transform="translate(260.558 48.047)">
        <g id="Group_78" data-name="Group 78">
          <path id="Path_258" data-name="Path 258" class="cls-7" d="M546.021,211.878c-.812-2.094-1.778-4.174-2.825-6.241-.775,7.185-3.71,14.37-7.152,21.557a53.012,53.012,0,0,1-.166,14.075l-8.3,2.963-22.757,22.317L474.484,282.16l-34.961,12.2-40.9,7.255H363.667l-41.228-7.586L274.948,282.16,237.02,255.774l-14.8-13.126a53.485,53.485,0,0,1-.743-8.651c-3.732-7.642-6.152-16-8.586-24.611q-.7,1.6-1.3,3.218l-3.91-6.762v29.595l.072-.067c.778,24.694,17.454,49.248,50.093,68.094,66.885,38.616,175.324,38.617,242.205,0,33.591-19.395,50.276-44.838,50.117-70.255l.024.026V205.842Z" transform="translate(-207.682 -106.961)"/>
          <path id="Path_259" data-name="Path 259" class="cls-8" d="M265.166,212.983c61.517-35.517,161.259-35.516,222.778,0,27.961,16.143,43.172,36.843,45.71,57.958,3.442-7.187,6.377-14.372,7.152-21.557a75.862,75.862,0,0,0-6.054-10l4.952-.434L515.3,196.293l-71.46-34.3-64.423-7.915L324.337,161l-34.961,6.6-28.364,13.193L231.66,202.23l-14.511,28.693-1.83,13a71.01,71.01,0,0,0-4.819,9.207c2.435,8.612,4.854,16.969,8.586,24.611C218.883,254.319,234.207,230.858,265.166,212.983Z" transform="translate(-205.291 -150.71)"/>
          <ellipse id="Ellipse_6" data-name="Ellipse 6" class="cls-9" cx="157.528" cy="90.949" rx="157.528" ry="90.949" transform="translate(13.738 18.612)"/>
          <path id="Path_260" data-name="Path 260" class="cls-10" d="M500.049,181.219c-66.885-38.616-175.322-38.617-242.205,0s-66.881,101.223,0,139.838,175.324,38.616,242.205,0S566.934,219.834,500.049,181.219Zm-9.71,134.23c-61.517,35.517-161.259,35.516-222.778,0s-61.521-93.1,0-128.622,161.259-35.517,222.778,0S551.857,279.931,490.338,315.449Z" transform="translate(-207.682 -152.256)"/>
          <path id="Path_261" data-name="Path 261" class="cls-11" d="M260.95,192.054c-27.144,15.672-42.29,35.639-45.481,56.112,3.191,20.472,18.339,40.442,45.485,56.113,61.519,35.517,161.261,35.519,222.778,0,27.144-15.672,42.29-35.639,45.481-56.112-3.191-20.472-18.339-40.442-45.485-56.114C422.209,156.539,322.468,156.537,260.95,192.054Z" transform="translate(-201.075 -141.089)"/>
        </g>
        <g id="Group_79" data-name="Group 79" transform="translate(274.946 179.271)">
          <path id="Path_262" data-name="Path 262" class="cls-12" d="M580.5,393.637a10.487,10.487,0,0,1-5.267-1.418L361.7,268.935a10.553,10.553,0,0,1,10.555-18.278L585.787,373.941a10.555,10.555,0,0,1-5.287,19.7Z" transform="translate(-356.421 -249.237)"/>
        </g>
        <path id="Path_263" data-name="Path 263" class="cls-13" d="M372.254,250.657A10.553,10.553,0,0,0,361.7,268.935l15.391,8.886h0s-5.6-14.16,10.993-18.025h0Z" transform="translate(-81.475 -69.966)"/>
      </g>
      <g id="Group_85" data-name="Group 85" transform="translate(144.77 215.272)">
        <g id="Group_84" data-name="Group 84" transform="translate(0)">
          <g id="Group_83" data-name="Group 83">
            <g id="Group_81" data-name="Group 81" transform="translate(5.114)">
              <path id="Path_264" data-name="Path 264" class="cls-5" d="M193.976,243.772a9.714,9.714,0,0,1,8.792,0l57.365,33.175c2.427,1.4,2.427,3.673,0,5.076a9.719,9.719,0,0,1-8.792,0l-57.365-33.175C191.547,247.445,191.547,245.173,193.976,243.772Z" transform="translate(-110.184 -242.72)"/>
              <path id="Path_265" data-name="Path 265" class="cls-5" d="M149.632,277.012a9.719,9.719,0,0,1,8.792,0l45.137,26.114c2.427,1.4,2.427,3.675,0,5.076a9.717,9.717,0,0,1-8.793,0l-45.135-26.114C147.2,280.687,147.2,278.415,149.632,277.012Z" transform="translate(-147.81 -214.514)"/>
              <path id="Path_266" data-name="Path 266" class="cls-14" d="M177.441,281.329a9.719,9.719,0,0,1,8.792,0l12.572,7.257c2.427,1.4,2.427,3.675,0,5.076a9.719,9.719,0,0,1-8.792,0l-12.57-7.257C175.014,285,175.012,282.731,177.441,281.329Z" transform="translate(-124.214 -210.851)"/>
              <path id="Path_267" data-name="Path 267" class="cls-5" d="M180.046,271.064a9.719,9.719,0,0,1,8.792,0l26.595,15.356c2.429,1.4,2.429,3.673,0,5.076a9.719,9.719,0,0,1-8.792,0L180.046,276.14C177.617,274.739,177.617,272.467,180.046,271.064Z" transform="translate(-122.004 -219.561)"/>
              <path id="Path_268" data-name="Path 268" class="cls-5" d="M193.286,266.94a9.723,9.723,0,0,1,8.793,0l20.958,12.1c2.429,1.4,2.427,3.675,0,5.076a9.713,9.713,0,0,1-8.792,0l-20.96-12.1C190.858,270.615,190.858,268.342,193.286,266.94Z" transform="translate(-110.769 -223.061)"/>
              <path id="Path_269" data-name="Path 269" class="cls-15" d="M191.371,254.035a9.719,9.719,0,0,1,8.792,0l43.34,25.079c2.427,1.4,2.427,3.675,0,5.076a9.719,9.719,0,0,1-8.792,0l-43.342-25.079C188.942,257.71,188.942,255.438,191.371,254.035Z" transform="translate(-112.394 -234.011)"/>
            </g>
            <g id="Group_82" data-name="Group 82" transform="translate(0 68.18)">
              <path id="Path_270" data-name="Path 270" class="cls-5" d="M154.288,279.682c2.427-1.4,37.135,16.419,39.564,17.822l4.329,2.519c2.427,1.4,2.427,3.675,0,5.076a9.723,9.723,0,0,1-8.793,0l-4.327-2.52C182.631,301.176,151.86,281.085,154.288,279.682Z" transform="translate(-137.316 -279.604)"/>
              <path id="Path_271" data-name="Path 271" class="cls-5" d="M149.47,288.711a9.717,9.717,0,0,1,8.793,0l26.595,15.354c2.427,1.4,2.427,3.675,0,5.076a9.717,9.717,0,0,1-8.793,0L149.47,293.787C147.042,292.384,147.042,290.112,149.47,288.711Z" transform="translate(-142.833 -272.768)"/>
              <path id="Path_272" data-name="Path 272" class="cls-5" d="M146.865,298.974a9.719,9.719,0,0,1,8.792,0l12.572,7.257c2.427,1.4,2.427,3.675,0,5.076a9.711,9.711,0,0,1-8.793,0l-12.57-7.257C144.438,302.649,144.436,300.377,146.865,298.974Z" transform="translate(-145.044 -264.059)"/>
            </g>
          </g>
        </g>
      </g>
      <g id="Group_86" data-name="Group 86" transform="translate(669.138 91.945)">
        <path id="Path_273" data-name="Path 273" class="cls-5" d="M457.813,181.624l38.6,22.289a8.924,8.924,0,0,0,8.067,0c2.227-1.287,2.226-3.372,0-4.658l-38.6-22.288a8.914,8.914,0,0,0-8.065,0C455.585,178.254,455.585,180.339,457.813,181.624Z" transform="translate(-405.44 -176.003)"/>
        <path id="Path_274" data-name="Path 274" class="cls-16" d="M448.67,182.247c-2.227,1.285-2.227,3.37,0,4.656l32.957,19.116a8.913,8.913,0,0,0,8.067,0c2.227-1.285,2.227-3.37,0-4.656l-32.957-19.116A8.913,8.913,0,0,0,448.67,182.247Z" transform="translate(-413.198 -171.524)"/>
        <path id="Path_275" data-name="Path 275" class="cls-5" d="M439.527,192.183l11.908,6.875a8.914,8.914,0,0,0,8.065,0c2.229-1.287,2.227-3.372,0-4.658l-11.906-6.875a8.918,8.918,0,0,0-8.067,0C437.3,188.811,437.3,190.9,439.527,192.183Z" transform="translate(-420.956 -167.046)"/>
        <path id="Path_276" data-name="Path 276" class="cls-17" d="M430.383,197.46,464,216.866a8.92,8.92,0,0,0,8.065,0c2.227-1.287,2.227-3.372,0-4.658l-33.61-19.4a8.912,8.912,0,0,0-8.067,0C428.156,194.09,428.158,196.176,430.383,197.46Z" transform="translate(-428.714 -162.567)"/>
        <path id="Path_277" data-name="Path 277" class="cls-5" d="M483.811,213.047c2.227-1.287,2.227-3.372,0-4.658l-21.822-12.551a8.913,8.913,0,0,0-8.067,0c-2.225,1.287-2.225,3.372,0,4.656l21.822,12.553A8.924,8.924,0,0,0,483.811,213.047Z" transform="translate(-408.74 -159.993)"/>
      </g>
    </g>
  </g>
</svg>
