<svg xmlns="http://www.w3.org/2000/svg" xmlns:xlink="http://www.w3.org/1999/xlink" width="675" height="583" viewBox="0 0 675 583">
  <defs>
    <style>
      .cls-1, .cls-8 {
        fill: #fff;
      }

      .cls-1 {
        stroke: #707070;
        opacity: 0.03;
      }

      .cls-2 {
        clip-path: url(#clip-path);
      }

      .cls-3 {
        fill: url(#linear-gradient);
      }

      .cls-4 {
        fill: #020230;
        opacity: 0.6;
      }

      .cls-5 {
        fill: url(#radial-gradient);
      }

      .cls-6 {
        fill: url(#radial-gradient-2);
      }

      .cls-7 {
        fill: url(#radial-gradient-3);
      }

      .cls-13, .cls-9 {
        opacity: 0.4;
      }

      .cls-10, .cls-13, .cls-14 {
        fill: #06033e;
      }

      .cls-11 {
        fill: url(#radial-gradient-4);
      }

      .cls-12 {
        fill: url(#linear-gradient-6);
      }

      .cls-14, .cls-16 {
        opacity: 0.5;
      }

      .cls-15 {
        fill: url(#radial-gradient-5);
      }
    </style>
    <clipPath id="clip-path">
      <rect id="Rectangle_28" data-name="Rectangle 28" class="cls-1" width="675" height="583" transform="translate(0 -0.187)"/>
    </clipPath>
    <linearGradient id="linear-gradient" y1="0.5" x2="1" y2="0.5" gradientUnits="objectBoundingBox">
      <stop offset="0" stop-color="#e39a65"/>
      <stop offset="1" stop-color="#e95f8d"/>
    </linearGradient>
    <radialGradient id="radial-gradient" cx="0.193" cy="-0.023" r="1.117" gradientTransform="translate(-0.04) scale(1.08 1)" gradientUnits="objectBoundingBox">
      <stop offset="0" stop-color="#e39a65"/>
      <stop offset="0.474" stop-color="#a92ffb"/>
      <stop offset="0.595" stop-color="#881bfa"/>
      <stop offset="0.742" stop-color="#6507fa"/>
      <stop offset="0.802" stop-color="#0d0c6f"/>
    </radialGradient>
    <radialGradient id="radial-gradient-2" cx="0.01" cy="0.384" r="1.712" gradientTransform="translate(0.213) scale(0.573 1)" gradientUnits="objectBoundingBox">
      <stop offset="0" stop-color="#e39a65"/>
      <stop offset="0.474" stop-color="#a92ffb"/>
      <stop offset="0.568" stop-color="#881bfa"/>
      <stop offset="0.683" stop-color="#6507fa"/>
      <stop offset="0.738" stop-color="#0d0c6f"/>
    </radialGradient>
    <radialGradient id="radial-gradient-3" cx="0.101" cy="0.074" r="1.524" gradientTransform="translate(0.211) scale(0.577 1)" gradientUnits="objectBoundingBox">
      <stop offset="0" stop-color="#e39a65"/>
      <stop offset="0.474" stop-color="#a92ffb"/>
      <stop offset="0.588" stop-color="#881bfa"/>
      <stop offset="0.726" stop-color="#6507fa"/>
      <stop offset="1" stop-color="#3919bb"/>
    </radialGradient>
    <radialGradient id="radial-gradient-4" cx="-0.116" cy="0.206" r="1.121" gradientTransform="translate(-0.038) scale(1.077 1)" xlink:href="#radial-gradient-3"/>
    <linearGradient id="linear-gradient-6" y1="0.5" x2="1" y2="0.5" gradientUnits="objectBoundingBox">
      <stop offset="0" stop-color="#3919bb"/>
      <stop offset="1" stop-color="#6507fa"/>
    </linearGradient>
    <radialGradient id="radial-gradient-5" cx="-1.084" cy="-0.321" r="2.658" gradientTransform="translate(-0.038) scale(1.077 1)" xlink:href="#radial-gradient-3"/>
  </defs>
  <g id="Mask_Group_3" data-name="Mask Group 3" class="cls-2" transform="translate(0 0.187)">
    <g id="Group_72" data-name="Group 72" transform="translate(21.618 41)">
      <g id="Group_71" data-name="Group 71" transform="translate(0)">
        <path id="Path_77" data-name="Path 77" class="cls-3" d="M508.534,329.641a11.734,11.734,0,0,1-5.867-1.569l-19.775-11.417a3.661,3.661,0,0,1,0-6.344l19.775-11.417a11.765,11.765,0,0,1,11.731,0l19.777,11.417a3.661,3.661,0,0,1,0,6.344L514.4,328.073A11.724,11.724,0,0,1,508.534,329.641Zm0-29.179a8.6,8.6,0,0,0-4.3,1.146l-19.775,11.419a.526.526,0,0,0,0,.913l19.777,11.417h0a8.621,8.621,0,0,0,8.6,0l19.777-11.417a.528.528,0,0,0,0-.913l-19.778-11.419A8.6,8.6,0,0,0,508.534,300.462Z" transform="translate(95.374 93.696)"/>
        <path id="Path_394" data-name="Path 394" class="cls-3" d="M508.534,329.641a11.734,11.734,0,0,1-5.867-1.569l-19.775-11.417a3.661,3.661,0,0,1,0-6.344l19.775-11.417a11.765,11.765,0,0,1,11.731,0l19.777,11.417a3.661,3.661,0,0,1,0,6.344L514.4,328.073A11.724,11.724,0,0,1,508.534,329.641Zm0-29.179a8.6,8.6,0,0,0-4.3,1.146l-19.775,11.419a.526.526,0,0,0,0,.913l19.777,11.417h0a8.621,8.621,0,0,0,8.6,0l19.777-11.417a.528.528,0,0,0,0-.913l-19.778-11.419A8.6,8.6,0,0,0,508.534,300.462Z" transform="translate(-450.626 -79.362)"/>
        <path id="Path_78" data-name="Path 78" class="cls-3" d="M482.558,299.742a19.033,19.033,0,0,1-9.529-2.546L439,277.545a5.169,5.169,0,0,1,0-8.957l34.032-19.649a19.1,19.1,0,0,1,19.059,0l34.035,19.649a5.173,5.173,0,0,1,0,8.959L492.088,297.2A19.062,19.062,0,0,1,482.558,299.742Zm-7.962-5.26a15.984,15.984,0,0,0,15.925,0l34.033-19.649a2.039,2.039,0,0,0,0-3.53L490.52,251.654a15.976,15.976,0,0,0-15.925,0L440.561,271.3a2.038,2.038,0,0,0,0,3.528Z" transform="translate(64.789 58.806)"/>
        <path id="Path_79" data-name="Path 79" class="cls-3" d="M121.337,318.094a19.042,19.042,0,0,1-9.53-2.544L77.771,295.9a5.172,5.172,0,0,1,0-8.959L111.8,267.292a19.1,19.1,0,0,1,19.059,0l34.033,19.65a5.169,5.169,0,0,1,0,8.957l-34.032,19.65A19.049,19.049,0,0,1,121.337,318.094Zm0-50.212a15.933,15.933,0,0,0-7.963,2.125l-34.033,19.65a2.037,2.037,0,0,0,0,3.528l34.033,19.649h0a15.976,15.976,0,0,0,15.925,0l34.033-19.649a2.036,2.036,0,0,0,0-3.527L129.3,270.006A15.931,15.931,0,0,0,121.335,267.881Z" transform="translate(-4.643 -138.623)"/>
        <g id="Group_70" data-name="Group 70" transform="translate(0 0)">
          <path id="Path_80" data-name="Path 80" class="cls-4" d="M407.025,445.1,163.663,304.6c-3.547-2.049-3.1-5.626.994-7.99l156.191-90.179c4.1-2.364,10.292-2.622,13.839-.573L578.051,346.361c3.547,2.047,3.1,5.625-.994,7.99L420.864,444.528C416.77,446.892,410.572,447.15,407.025,445.1Z" transform="translate(-123.677 30.092)"/>
          <path id="Path_81" data-name="Path 81" class="cls-3" d="M427.883,479.157a15.559,15.559,0,0,1-7.658-1.794h0L142.477,317c-2.268-1.309-3.518-3.2-3.518-5.318,0-2.435,1.7-4.811,4.651-6.518L332.941,194.243c5.193-3,12.823-3.287,17.372-.659l277.747,160.36c2.27,1.308,3.518,3.2,3.518,5.316,0,2.435-1.695,4.809-4.652,6.516L437.6,476.7A19.866,19.866,0,0,1,427.883,479.157Zm-85.191-284.22a16.9,16.9,0,0,0-8.174,2.017L145.188,307.88c-1.941,1.12-3.092,2.541-3.092,3.8a3.315,3.315,0,0,0,1.948,2.6L421.793,474.646h0c3.545,2.051,10.061,1.751,14.223-.654L625.349,363.066c1.941-1.121,3.092-2.541,3.092-3.806a3.314,3.314,0,0,0-1.948-2.6L348.746,196.3A12.417,12.417,0,0,0,342.692,194.937Z" transform="translate(-138.959 21.403)"/>
          <path id="Path_82" data-name="Path 82" class="cls-5" d="M571.8,206.157,329.39,66.2a6.278,6.278,0,0,0-4.947-.711h0l0,0-.022.007-4.489,1.564,1.58.374a7.855,7.855,0,0,0-1.481,2.772L265.213,248.2c-1.358,4.413.632,9.775,4.443,11.977l242.4,139.951a7.106,7.106,0,0,0,1.783.73l-.6,1.308,4.287-1.506-.01,0a6.856,6.856,0,0,0,3.9-4.534l54.818-177.986C577.6,213.72,575.607,208.358,571.8,206.157Z" transform="translate(-52.77 -65.264)"/>
          <path id="Path_83" data-name="Path 83" class="cls-6" d="M574.259,324.654l.086.1L334.912,186.521c-3.522-2.034-9.675-1.779-13.741.57L166.473,276.4l-5.158-1.97,1.449,7.237.007,0a4.332,4.332,0,0,0,2.322,2.9L406.74,424.08c3.522,2.034,9.673,1.778,13.741-.57l155.091-89.542a6.2,6.2,0,0,0,3.286-3.83l.01.01,1.479-7.043Z" transform="translate(-123.646 16.855)"/>
          <path id="Path_84" data-name="Path 84" class="cls-7" d="M407.025,420.991,163.663,280.485c-3.547-2.047-3.1-5.624.994-7.989l156.191-90.179c4.1-2.364,10.292-2.622,13.839-.573L578.051,322.251c3.547,2.047,3.1,5.624-.994,7.989L420.864,420.418C416.77,422.782,410.572,423.04,407.025,420.991Z" transform="translate(-123.677 13.577)"/>
          <path id="Path_85" data-name="Path 85" class="cls-8" d="M577.041,289.439,420.848,379.616c-4.095,2.366-10.292,2.622-13.839.575L163.647,239.685a4.541,4.541,0,0,1-2.212-2.524c-.47,1.631.217,3.267,2.212,4.418L407.009,382.086c3.547,2.047,9.744,1.789,13.839-.575l156.193-90.177c2.7-1.56,3.778-3.64,3.206-5.466A6.443,6.443,0,0,1,577.041,289.439Z" transform="translate(-123.661 52.483)"/>
          <g id="Group_66" data-name="Group 66" class="cls-9" transform="translate(147.406 226.656)">
            <path id="Path_86" data-name="Path 86" class="cls-10" d="M235.1,231.207l-8.216-4.743c-.659-.381-.576-1.046.185-1.486l9.7-5.6a2.863,2.863,0,0,1,2.575-.106l8.216,4.743c.661.381.576,1.046-.185,1.486l-9.7,5.6A2.863,2.863,0,0,1,235.1,231.207Z" transform="translate(-226.441 -186.603)"/>
            <path id="Path_87" data-name="Path 87" class="cls-10" d="M242.633,235.556l-8.218-4.745c-.659-.381-.576-1.045.185-1.484l9.7-5.6a2.86,2.86,0,0,1,2.573-.108l8.216,4.745c.661.381.578,1.045-.184,1.484l-9.7,5.6A2.854,2.854,0,0,1,242.633,235.556Z" transform="translate(-221.283 -183.625)"/>
            <path id="Path_88" data-name="Path 88" class="cls-10" d="M250.163,239.9l-8.216-4.743c-.661-.381-.578-1.046.184-1.486l9.7-5.6a2.859,2.859,0,0,1,2.573-.106l8.218,4.743c.659.381.576,1.046-.185,1.486l-9.7,5.6A2.859,2.859,0,0,1,250.163,239.9Z" transform="translate(-216.125 -180.647)"/>
            <path id="Path_89" data-name="Path 89" class="cls-10" d="M260.578,235.947l-8.218-4.743c-.659-.381-.576-1.046.185-1.486l8.142-4.7a2.859,2.859,0,0,1,2.573-.106l8.216,4.743c.661.381.578,1.046-.184,1.486l-8.142,4.7A2.859,2.859,0,0,1,260.578,235.947Z" transform="translate(-208.991 -182.741)"/>
            <path id="Path_90" data-name="Path 90" class="cls-10" d="M268.108,240.294l-8.216-4.743c-.66-.381-.578-1.046.184-1.486l8.142-4.7a2.859,2.859,0,0,1,2.573-.106L279.007,234c.66.381.578,1.046-.184,1.486l-8.142,4.7A2.854,2.854,0,0,1,268.108,240.294Z" transform="translate(-203.833 -179.763)"/>
            <path id="Path_91" data-name="Path 91" class="cls-10" d="M275.638,244.642l-8.216-4.743c-.661-.381-.576-1.046.185-1.486l8.14-4.7a2.863,2.863,0,0,1,2.575-.108l8.216,4.745c.659.379.576,1.045-.185,1.484l-8.14,4.7A2.863,2.863,0,0,1,275.638,244.642Z" transform="translate(-198.675 -176.785)"/>
            <path id="Path_92" data-name="Path 92" class="cls-10" d="M283.168,248.99l-8.216-4.743c-.659-.381-.576-1.046.185-1.486l8.14-4.7a2.863,2.863,0,0,1,2.575-.106l8.216,4.743c.661.381.576,1.046-.185,1.486l-8.14,4.7A2.863,2.863,0,0,1,283.168,248.99Z" transform="translate(-193.517 -173.807)"/>
            <path id="Path_93" data-name="Path 93" class="cls-10" d="M290.7,253.337l-8.216-4.743c-.66-.381-.578-1.046.184-1.486l8.142-4.7a2.854,2.854,0,0,1,2.573-.106l8.216,4.743c.66.381.578,1.046-.184,1.486l-8.142,4.7A2.859,2.859,0,0,1,290.7,253.337Z" transform="translate(-188.359 -170.829)"/>
            <path id="Path_94" data-name="Path 94" class="cls-10" d="M298.229,257.685l-8.216-4.743c-.661-.381-.578-1.046.184-1.486l8.142-4.7a2.859,2.859,0,0,1,2.573-.106l8.216,4.743c.661.381.578,1.046-.184,1.486l-8.142,4.7A2.859,2.859,0,0,1,298.229,257.685Z" transform="translate(-183.201 -167.851)"/>
            <path id="Path_95" data-name="Path 95" class="cls-10" d="M305.759,262.033l-8.216-4.745c-.659-.381-.576-1.046.185-1.486l8.14-4.7a2.863,2.863,0,0,1,2.575-.106l8.216,4.743c.659.381.576,1.046-.185,1.486l-8.14,4.7A2.863,2.863,0,0,1,305.759,262.033Z" transform="translate(-178.042 -164.873)"/>
            <path id="Path_96" data-name="Path 96" class="cls-10" d="M313.289,266.38l-8.216-4.743c-.659-.381-.576-1.046.185-1.486l8.14-4.7a2.863,2.863,0,0,1,2.575-.108l8.216,4.745c.659.381.576,1.045-.185,1.484l-8.14,4.7A2.862,2.862,0,0,1,313.289,266.38Z" transform="translate(-172.884 -161.895)"/>
            <path id="Path_97" data-name="Path 97" class="cls-10" d="M320.82,270.728l-8.218-4.743c-.659-.382-.576-1.046.185-1.486l8.142-4.7a2.859,2.859,0,0,1,2.573-.106l8.216,4.743c.661.381.578,1.046-.184,1.486l-8.142,4.7A2.859,2.859,0,0,1,320.82,270.728Z" transform="translate(-167.726 -158.917)"/>
            <path id="Path_98" data-name="Path 98" class="cls-10" d="M328.35,275.075l-8.216-4.743c-.661-.381-.578-1.046.184-1.486l8.142-4.7a2.86,2.86,0,0,1,2.573-.108l8.218,4.745c.659.381.576,1.046-.185,1.486l-8.142,4.7A2.859,2.859,0,0,1,328.35,275.075Z" transform="translate(-162.568 -155.939)"/>
            <path id="Path_99" data-name="Path 99" class="cls-10" d="M271.673,233.889l-8.216-4.745c-.66-.381-.578-1.046.184-1.486l8.142-4.7a2.859,2.859,0,0,1,2.573-.106l8.218,4.743c.659.381.576,1.046-.185,1.486l-8.142,4.7A2.859,2.859,0,0,1,271.673,233.889Z" transform="translate(-201.391 -184.151)"/>
            <path id="Path_100" data-name="Path 100" class="cls-10" d="M264.03,229.476l-8.216-4.743c-.659-.381-.576-1.046.185-1.486l8.14-4.7a2.858,2.858,0,0,1,2.575-.108l8.216,4.743c.659.383.576,1.046-.185,1.486l-8.14,4.7A2.862,2.862,0,0,1,264.03,229.476Z" transform="translate(-206.626 -187.174)"/>
            <path id="Path_101" data-name="Path 101" class="cls-10" d="M260.228,227.281l-17.7-10.216c-.659-.381-.576-1.046.185-1.486l8.14-4.7a2.863,2.863,0,0,1,2.575-.108l17.7,10.218c.659.381.576,1.046-.185,1.486l-8.14,4.7A2.863,2.863,0,0,1,260.228,227.281Z" transform="translate(-215.723 -192.426)"/>
            <path id="Path_102" data-name="Path 102" class="cls-10" d="M264.224,221.124l-14.361-8.292c-.659-.381-.576-1.046.185-1.486l8.142-4.7a2.86,2.86,0,0,1,2.573-.108l14.361,8.292c.659.381.576,1.046-.185,1.486l-8.14,4.7A2.863,2.863,0,0,1,264.224,221.124Z" transform="translate(-210.702 -195.325)"/>
            <path id="Path_103" data-name="Path 103" class="cls-10" d="M279.2,238.236l-8.216-4.743c-.659-.381-.576-1.046.185-1.486l8.14-4.7a2.863,2.863,0,0,1,2.575-.108l8.216,4.745c.659.381.576,1.046-.185,1.484l-8.14,4.7A2.862,2.862,0,0,1,279.2,238.236Z" transform="translate(-196.233 -181.173)"/>
            <path id="Path_104" data-name="Path 104" class="cls-10" d="M286.734,242.584l-8.218-4.743c-.659-.382-.576-1.046.185-1.486l8.14-4.7a2.863,2.863,0,0,1,2.575-.106l8.216,4.743c.66.381.578,1.046-.185,1.486l-8.14,4.7A2.859,2.859,0,0,1,286.734,242.584Z" transform="translate(-191.075 -178.195)"/>
            <path id="Path_105" data-name="Path 105" class="cls-10" d="M294.264,246.931l-8.216-4.743c-.661-.381-.578-1.046.184-1.486l8.142-4.7a2.865,2.865,0,0,1,2.573-.108l8.216,4.745c.661.381.578,1.046-.184,1.486l-8.142,4.7A2.854,2.854,0,0,1,294.264,246.931Z" transform="translate(-185.917 -175.217)"/>
            <path id="Path_106" data-name="Path 106" class="cls-10" d="M301.794,251.279l-8.216-4.743c-.66-.381-.578-1.046.185-1.486l8.14-4.7a2.859,2.859,0,0,1,2.573-.106l8.218,4.743c.659.381.576,1.046-.185,1.486l-8.14,4.7A2.863,2.863,0,0,1,301.794,251.279Z" transform="translate(-180.759 -172.239)"/>
            <path id="Path_107" data-name="Path 107" class="cls-10" d="M309.324,255.627l-8.216-4.745c-.659-.381-.576-1.045.185-1.486l8.14-4.7a2.863,2.863,0,0,1,2.575-.106l8.216,4.743c.659.381.576,1.046-.185,1.486l-8.14,4.7A2.863,2.863,0,0,1,309.324,255.627Z" transform="translate(-175.6 -169.261)"/>
            <path id="Path_108" data-name="Path 108" class="cls-10" d="M316.854,259.974l-8.216-4.743c-.659-.381-.576-1.046.185-1.486l8.14-4.7a2.863,2.863,0,0,1,2.575-.108l8.216,4.745c.661.381.578,1.046-.185,1.486l-8.14,4.7A2.863,2.863,0,0,1,316.854,259.974Z" transform="translate(-170.442 -166.283)"/>
            <path id="Path_109" data-name="Path 109" class="cls-10" d="M324.385,264.322l-8.216-4.743c-.661-.381-.578-1.046.184-1.486l8.142-4.7a2.859,2.859,0,0,1,2.573-.106l8.216,4.743c.66.381.578,1.046-.184,1.486l-8.142,4.7A2.854,2.854,0,0,1,324.385,264.322Z" transform="translate(-165.284 -163.305)"/>
            <path id="Path_110" data-name="Path 110" class="cls-10" d="M331.915,268.669l-8.216-4.743c-.661-.381-.578-1.046.185-1.486l8.14-4.7a2.854,2.854,0,0,1,2.573-.106l8.218,4.743c.659.381.576,1.046-.185,1.486l-8.142,4.7A2.854,2.854,0,0,1,331.915,268.669Z" transform="translate(-160.126 -160.327)"/>
            <path id="Path_111" data-name="Path 111" class="cls-10" d="M339.445,273.017l-8.216-4.743c-.659-.381-.576-1.046.185-1.486l8.14-4.7a2.863,2.863,0,0,1,2.575-.108l8.216,4.743c.659.381.576,1.046-.185,1.486l-8.14,4.7A2.863,2.863,0,0,1,339.445,273.017Z" transform="translate(-154.968 -157.349)"/>
            <path id="Path_112" data-name="Path 112" class="cls-10" d="M356.779,283.025l-17.926-10.349c-.659-.382-.576-1.046.185-1.486l8.14-4.7a2.862,2.862,0,0,1,2.575-.106l17.927,10.351c.661.379.576,1.045-.185,1.484l-8.14,4.7A2.863,2.863,0,0,1,356.779,283.025Z" transform="translate(-149.746 -154.334)"/>
            <path id="Path_113" data-name="Path 113" class="cls-10" d="M370.3,273.9l-15.131-8.737c-.661-.381-.578-1.046.185-1.486l8.14-4.7a2.863,2.863,0,0,1,2.575-.106l15.131,8.735c.659.381.576,1.046-.185,1.486l-8.142,4.7A2.859,2.859,0,0,1,370.3,273.9Z" transform="translate(-138.567 -159.475)"/>
            <path id="Path_114" data-name="Path 114" class="cls-10" d="M292.39,237.386l-8.216-4.745c-.659-.381-.576-1.045.185-1.486l8.14-4.7a2.863,2.863,0,0,1,2.575-.106l8.216,4.743c.659.381.576,1.046-.185,1.486l-8.14,4.7A2.863,2.863,0,0,1,292.39,237.386Z" transform="translate(-187.2 -181.755)"/>
            <path id="Path_115" data-name="Path 115" class="cls-10" d="M284.673,232.93l-8.216-4.743c-.66-.382-.578-1.046.184-1.486l8.142-4.7a2.859,2.859,0,0,1,2.573-.106l8.216,4.743c.661.381.578,1.046-.184,1.486l-8.142,4.7A2.854,2.854,0,0,1,284.673,232.93Z" transform="translate(-192.486 -184.808)"/>
            <path id="Path_116" data-name="Path 116" class="cls-10" d="M276.955,228.474l-8.216-4.743c-.659-.381-.576-1.046.185-1.486l8.14-4.7a2.868,2.868,0,0,1,2.575-.106l8.216,4.743c.659.381.576,1.046-.185,1.486l-8.14,4.7A2.863,2.863,0,0,1,276.955,228.474Z" transform="translate(-197.772 -187.86)"/>
            <path id="Path_117" data-name="Path 117" class="cls-10" d="M269.238,224.018l-8.218-4.743c-.659-.381-.576-1.046.185-1.486l8.142-4.7a2.86,2.86,0,0,1,2.573-.108l8.216,4.745c.66.381.578,1.046-.184,1.486l-8.142,4.7A2.859,2.859,0,0,1,269.238,224.018Z" transform="translate(-203.059 -190.912)"/>
            <path id="Path_118" data-name="Path 118" class="cls-10" d="M299.921,241.733,291.7,236.99c-.659-.381-.576-1.046.185-1.486l8.142-4.7a2.86,2.86,0,0,1,2.573-.108l8.216,4.745c.66.381.578,1.045-.185,1.484l-8.14,4.7A2.859,2.859,0,0,1,299.921,241.733Z" transform="translate(-182.042 -178.778)"/>
            <path id="Path_119" data-name="Path 119" class="cls-10" d="M307.451,246.081l-8.216-4.743c-.661-.381-.578-1.046.184-1.486l8.142-4.7a2.859,2.859,0,0,1,2.573-.106l8.216,4.743c.661.381.578,1.046-.184,1.486l-8.142,4.7A2.854,2.854,0,0,1,307.451,246.081Z" transform="translate(-176.884 -175.8)"/>
            <path id="Path_120" data-name="Path 120" class="cls-10" d="M314.981,250.428l-8.216-4.743c-.661-.381-.576-1.046.185-1.486l8.14-4.7a2.858,2.858,0,0,1,2.575-.106l8.216,4.743c.659.381.576,1.046-.185,1.486l-8.14,4.7A2.863,2.863,0,0,1,314.981,250.428Z" transform="translate(-171.726 -172.822)"/>
            <path id="Path_121" data-name="Path 121" class="cls-10" d="M322.511,254.776l-8.216-4.743c-.659-.381-.576-1.046.185-1.486l8.14-4.7a2.863,2.863,0,0,1,2.575-.106l8.216,4.743c.659.381.576,1.046-.185,1.486l-8.14,4.7A2.863,2.863,0,0,1,322.511,254.776Z" transform="translate(-166.567 -169.844)"/>
            <path id="Path_122" data-name="Path 122" class="cls-10" d="M330.042,259.124l-8.218-4.745c-.659-.381-.576-1.046.185-1.484l8.142-4.7a2.859,2.859,0,0,1,2.573-.106l8.216,4.743c.661.381.578,1.046-.184,1.486l-8.142,4.7A2.86,2.86,0,0,1,330.042,259.124Z" transform="translate(-161.409 -166.865)"/>
            <path id="Path_123" data-name="Path 123" class="cls-10" d="M337.572,263.471l-8.216-4.743c-.661-.381-.578-1.046.184-1.486l8.142-4.7a2.86,2.86,0,0,1,2.573-.108l8.216,4.745c.661.381.578,1.045-.184,1.484l-8.142,4.7A2.859,2.859,0,0,1,337.572,263.471Z" transform="translate(-156.251 -163.887)"/>
            <path id="Path_124" data-name="Path 124" class="cls-10" d="M345.1,267.819l-8.216-4.743c-.66-.382-.576-1.046.185-1.486l8.14-4.7a2.863,2.863,0,0,1,2.575-.106L356,261.526c.659.381.576,1.046-.185,1.486l-8.14,4.7A2.858,2.858,0,0,1,345.1,267.819Z" transform="translate(-151.093 -160.909)"/>
            <path id="Path_125" data-name="Path 125" class="cls-10" d="M352.632,272.166l-8.216-4.743c-.659-.381-.576-1.046.185-1.486l8.14-4.7a2.868,2.868,0,0,1,2.575-.108l8.216,4.745c.661.381.576,1.046-.185,1.486l-8.14,4.7A2.862,2.862,0,0,1,352.632,272.166Z" transform="translate(-145.935 -157.931)"/>
            <path id="Path_126" data-name="Path 126" class="cls-10" d="M360.163,276.514l-8.216-4.743c-.66-.381-.578-1.046.184-1.486l8.142-4.7a2.859,2.859,0,0,1,2.573-.106l8.216,4.743c.661.381.578,1.046-.184,1.486l-8.142,4.7A2.859,2.859,0,0,1,360.163,276.514Z" transform="translate(-140.777 -154.953)"/>
            <path id="Path_127" data-name="Path 127" class="cls-10" d="M288.425,226.632l-8.216-4.743c-.659-.381-.576-1.046.185-1.486l8.14-4.7a2.858,2.858,0,0,1,2.575-.108l8.216,4.743c.659.383.576,1.046-.185,1.486l-8.14,4.7A2.863,2.863,0,0,1,288.425,226.632Z" transform="translate(-189.916 -189.122)"/>
            <path id="Path_128" data-name="Path 128" class="cls-10" d="M280.932,222.306l-8.216-4.743c-.659-.381-.576-1.046.185-1.486l8.14-4.7a2.858,2.858,0,0,1,2.575-.108l8.216,4.743c.66.382.576,1.046-.185,1.486l-8.14,4.7A2.863,2.863,0,0,1,280.932,222.306Z" transform="translate(-195.048 -192.085)"/>
            <path id="Path_129" data-name="Path 129" class="cls-10" d="M273.44,217.98l-8.218-4.743c-.659-.381-.576-1.046.185-1.486l8.142-4.7a2.854,2.854,0,0,1,2.573-.108l8.216,4.743c.661.382.578,1.046-.184,1.486l-8.142,4.7A2.859,2.859,0,0,1,273.44,217.98Z" transform="translate(-200.181 -195.048)"/>
            <path id="Path_130" data-name="Path 130" class="cls-10" d="M265.947,213.654l-8.216-4.743c-.661-.381-.578-1.046.184-1.486l8.142-4.7a2.854,2.854,0,0,1,2.573-.108l8.216,4.743c.661.382.578,1.046-.184,1.486l-8.142,4.7A2.859,2.859,0,0,1,265.947,213.654Z" transform="translate(-205.313 -198.011)"/>
            <path id="Path_131" data-name="Path 131" class="cls-10" d="M273.652,207.927l-8.216-4.743c-.661-.383-.578-1.046.184-1.486l2.691-1.554a2.858,2.858,0,0,1,2.575-.108l8.216,4.743c.659.381.576,1.046-.185,1.486l-2.691,1.554A2.86,2.86,0,0,1,273.652,207.927Z" transform="translate(-200.036 -199.779)"/>
            <path id="Path_132" data-name="Path 132" class="cls-10" d="M283.43,213.572l-8.216-4.743c-.66-.381-.578-1.046.184-1.486l2.691-1.554a2.857,2.857,0,0,1,2.575-.106l8.216,4.743c.661.381.576,1.046-.185,1.486L286,213.466A2.859,2.859,0,0,1,283.43,213.572Z" transform="translate(-193.338 -195.912)"/>
            <path id="Path_133" data-name="Path 133" class="cls-10" d="M290.891,217.88l-8.216-4.743c-.659-.381-.576-1.046.185-1.486l2.691-1.554a2.857,2.857,0,0,1,2.575-.106l8.216,4.743c.659.381.576,1.046-.185,1.486l-2.691,1.554A2.863,2.863,0,0,1,290.891,217.88Z" transform="translate(-188.227 -192.961)"/>
            <path id="Path_134" data-name="Path 134" class="cls-10" d="M298.353,222.188l-8.216-4.743c-.661-.381-.578-1.046.184-1.486l2.693-1.554a2.86,2.86,0,0,1,2.573-.108l8.216,4.745c.66.381.578,1.046-.184,1.486l-2.693,1.554A2.859,2.859,0,0,1,298.353,222.188Z" transform="translate(-183.116 -190.011)"/>
            <path id="Path_135" data-name="Path 135" class="cls-10" d="M305.814,226.5l-8.216-4.743c-.659-.381-.576-1.046.185-1.486l2.691-1.554a2.863,2.863,0,0,1,2.575-.108l8.216,4.745c.659.381.576,1.046-.185,1.486l-2.691,1.554A2.863,2.863,0,0,1,305.814,226.5Z" transform="translate(-178.005 -187.06)"/>
            <path id="Path_136" data-name="Path 136" class="cls-10" d="M347.471,250.547l-8.216-4.745c-.659-.381-.576-1.046.185-1.486l2.691-1.554a2.859,2.859,0,0,1,2.573-.106l8.218,4.743c.659.381.576,1.046-.185,1.486l-2.691,1.554A2.863,2.863,0,0,1,347.471,250.547Z" transform="translate(-149.47 -170.585)"/>
            <path id="Path_137" data-name="Path 137" class="cls-10" d="M354.933,254.854l-8.216-4.743c-.661-.381-.578-1.046.184-1.486l2.693-1.554a2.859,2.859,0,0,1,2.573-.106l8.216,4.743c.66.381.578,1.046-.184,1.486l-2.693,1.554A2.854,2.854,0,0,1,354.933,254.854Z" transform="translate(-144.359 -167.635)"/>
            <path id="Path_138" data-name="Path 138" class="cls-10" d="M362.394,259.163l-8.216-4.745c-.659-.381-.576-1.046.185-1.486l2.691-1.554a2.862,2.862,0,0,1,2.575-.106l8.216,4.743c.659.381.576,1.046-.185,1.486l-2.691,1.553A2.868,2.868,0,0,1,362.394,259.163Z" transform="translate(-139.248 -164.684)"/>
            <path id="Path_139" data-name="Path 139" class="cls-10" d="M369.856,263.47l-8.216-4.743c-.661-.381-.578-1.046.185-1.486l2.691-1.554a2.859,2.859,0,0,1,2.573-.106l8.216,4.743c.661.381.578,1.046-.184,1.486l-2.691,1.554A2.857,2.857,0,0,1,369.856,263.47Z" transform="translate(-134.137 -161.733)"/>
            <path id="Path_140" data-name="Path 140" class="cls-10" d="M295.955,230.98l-8.216-4.745c-.659-.381-.576-1.045.185-1.486l8.14-4.7a2.863,2.863,0,0,1,2.575-.106l8.216,4.743c.66.381.576,1.046-.185,1.486l-8.14,4.7A2.863,2.863,0,0,1,295.955,230.98Z" transform="translate(-184.758 -186.143)"/>
            <path id="Path_141" data-name="Path 141" class="cls-10" d="M303.486,235.327l-8.216-4.743c-.661-.381-.578-1.046.184-1.486l8.142-4.7a2.86,2.86,0,0,1,2.573-.108l8.216,4.745c.661.381.578,1.046-.184,1.484l-8.142,4.7A2.859,2.859,0,0,1,303.486,235.327Z" transform="translate(-179.6 -183.166)"/>
            <path id="Path_142" data-name="Path 142" class="cls-10" d="M311.016,239.675l-8.216-4.743c-.66-.381-.578-1.046.184-1.486l8.142-4.7a2.859,2.859,0,0,1,2.573-.106l8.218,4.743c.659.381.576,1.046-.185,1.486l-8.142,4.7A2.859,2.859,0,0,1,311.016,239.675Z" transform="translate(-174.442 -180.188)"/>
            <path id="Path_143" data-name="Path 143" class="cls-10" d="M318.546,244.022l-8.216-4.743c-.659-.381-.576-1.046.185-1.486l8.14-4.7a2.863,2.863,0,0,1,2.575-.106l8.216,4.743c.659.381.576,1.046-.185,1.486l-8.14,4.7A2.857,2.857,0,0,1,318.546,244.022Z" transform="translate(-169.283 -177.209)"/>
            <path id="Path_144" data-name="Path 144" class="cls-10" d="M326.076,248.37l-8.216-4.743c-.659-.381-.576-1.046.185-1.486l8.14-4.7a2.868,2.868,0,0,1,2.575-.106l8.216,4.743c.661.381.576,1.046-.185,1.486l-8.14,4.7A2.863,2.863,0,0,1,326.076,248.37Z" transform="translate(-164.125 -174.231)"/>
            <path id="Path_145" data-name="Path 145" class="cls-10" d="M333.607,252.718l-8.216-4.745c-.661-.381-.578-1.045.184-1.485l8.142-4.7a2.859,2.859,0,0,1,2.573-.106l8.216,4.743c.661.381.578,1.046-.184,1.486l-8.142,4.7A2.86,2.86,0,0,1,333.607,252.718Z" transform="translate(-158.967 -171.253)"/>
            <path id="Path_146" data-name="Path 146" class="cls-10" d="M341.137,257.065l-8.216-4.743c-.661-.381-.578-1.046.184-1.486l8.142-4.7a2.86,2.86,0,0,1,2.573-.108l8.218,4.745c.659.381.576,1.045-.185,1.486l-8.142,4.7A2.859,2.859,0,0,1,341.137,257.065Z" transform="translate(-153.809 -168.275)"/>
            <path id="Path_147" data-name="Path 147" class="cls-10" d="M348.667,261.413l-8.216-4.743c-.659-.381-.576-1.046.185-1.486l8.14-4.7a2.863,2.863,0,0,1,2.575-.106l8.216,4.743c.659.381.576,1.046-.185,1.486l-8.14,4.7A2.863,2.863,0,0,1,348.667,261.413Z" transform="translate(-148.651 -165.297)"/>
            <path id="Path_148" data-name="Path 148" class="cls-10" d="M356.2,265.76l-8.218-4.743c-.659-.381-.576-1.046.185-1.486l8.142-4.7a2.859,2.859,0,0,1,2.573-.106l8.216,4.743c.661.381.578,1.046-.185,1.486l-8.14,4.7A2.859,2.859,0,0,1,356.2,265.76Z" transform="translate(-143.493 -162.319)"/>
            <path id="Path_149" data-name="Path 149" class="cls-10" d="M259.4,235.267,235.2,221.3c-.661-.381-.578-1.046.185-1.486l8.14-4.7A2.857,2.857,0,0,1,246.1,215l24.2,13.97c.661.381.578,1.046-.184,1.486l-8.142,4.7A2.859,2.859,0,0,1,259.4,235.267Z" transform="translate(-220.745 -189.527)"/>
            <path id="Path_150" data-name="Path 150" class="cls-10" d="M351.912,288.679l-24.2-13.97c-.66-.382-.576-1.046.185-1.486l8.14-4.7a2.863,2.863,0,0,1,2.575-.106l24.2,13.97c.661.381.578,1.046-.184,1.486l-8.142,4.7A2.86,2.86,0,0,1,351.912,288.679Z" transform="translate(-157.376 -152.941)"/>
            <path id="Path_151" data-name="Path 151" class="cls-10" d="M315.3,277.511l-8.216-4.745c-.659-.381-.576-1.046.185-1.486l9.7-5.6a2.863,2.863,0,0,1,2.575-.106l8.216,4.743c.659.381.576,1.046-.185,1.486l-9.7,5.6A2.863,2.863,0,0,1,315.3,277.511Z" transform="translate(-171.507 -154.887)"/>
            <path id="Path_152" data-name="Path 152" class="cls-10" d="M262.617,247.093l-13.139-7.586c-.661-.381-.576-1.046.185-1.486l9.7-5.6a2.857,2.857,0,0,1,2.575-.106l13.14,7.586c.661.381.576,1.046-.185,1.486l-9.7,5.6A2.863,2.863,0,0,1,262.617,247.093Z" transform="translate(-210.967 -177.669)"/>
            <path id="Path_153" data-name="Path 153" class="cls-10" d="M310.047,274.476l-13.141-7.586c-.659-.381-.576-1.046.185-1.486l9.7-5.6a2.859,2.859,0,0,1,2.573-.106l13.139,7.586c.661.381.578,1.046-.184,1.486l-9.7,5.6A2.854,2.854,0,0,1,310.047,274.476Z" transform="translate(-178.479 -158.912)"/>
            <path id="Path_154" data-name="Path 154" class="cls-10" d="M273.482,253.366l-13.139-7.587c-.661-.381-.578-1.046.184-1.484l9.7-5.6a2.854,2.854,0,0,1,2.573-.108l13.141,7.587c.659.381.576,1.045-.185,1.486l-9.7,5.6A2.859,2.859,0,0,1,273.482,253.366Z" transform="translate(-203.525 -173.373)"/>
            <path id="Path_155" data-name="Path 155" class="cls-10" d="M272.67,238.514,329.8,271.5a.781.781,0,0,1,0,1.481l-9.889,5.71a2.837,2.837,0,0,1-2.568,0l-57.129-32.984Z" transform="translate(-203.308 -173.247)"/>
            <path id="Path_156" data-name="Path 156" class="cls-10" d="M335.505,280.522l9.153,5.284c.541.312.472.858-.152,1.218l-3.968,2.29a2.346,2.346,0,0,1-2.11.088l-9.151-5.284c-.541-.312-.473-.858.152-1.218l3.966-2.29A2.346,2.346,0,0,1,335.505,280.522Z" transform="translate(-156.25 -144.616)"/>
            <path id="Path_157" data-name="Path 157" class="cls-10" d="M327.912,276.137l9.153,5.284c.541.313.473.858-.152,1.218l-3.966,2.292a2.351,2.351,0,0,1-2.11.088l-9.153-5.284c-.541-.313-.474-.858.152-1.218l3.966-2.292A2.351,2.351,0,0,1,327.912,276.137Z" transform="translate(-161.451 -147.619)"/>
            <path id="Path_158" data-name="Path 158" class="cls-10" d="M320.382,271.791l9.153,5.284c.541.312.472.858-.152,1.218l-3.968,2.29a2.346,2.346,0,0,1-2.11.088l-9.151-5.284c-.541-.312-.473-.858.152-1.218l3.966-2.29A2.346,2.346,0,0,1,320.382,271.791Z" transform="translate(-166.609 -150.597)"/>
            <path id="Path_159" data-name="Path 159" class="cls-10" d="M332.072,273.738l9.151,5.284c.541.312.474.858-.152,1.217L337.1,282.53a2.346,2.346,0,0,1-2.11.088l-9.153-5.284c-.541-.312-.472-.858.152-1.218l3.968-2.29A2.34,2.34,0,0,1,332.072,273.738Z" transform="translate(-158.603 -149.264)"/>
          </g>
          <g id="Group_67" data-name="Group 67" class="cls-9" transform="translate(147.406 226.656)">
            <path id="Path_160" data-name="Path 160" class="cls-10" d="M235.1,231.207l-8.216-4.743c-.659-.381-.576-1.046.185-1.486l9.7-5.6a2.863,2.863,0,0,1,2.575-.106l8.216,4.743c.661.381.576,1.046-.185,1.486l-9.7,5.6A2.863,2.863,0,0,1,235.1,231.207Z" transform="translate(-226.441 -186.603)"/>
            <path id="Path_161" data-name="Path 161" class="cls-10" d="M242.633,235.556l-8.218-4.745c-.659-.381-.576-1.045.185-1.484l9.7-5.6a2.86,2.86,0,0,1,2.573-.108l8.216,4.745c.661.381.578,1.045-.184,1.484l-9.7,5.6A2.854,2.854,0,0,1,242.633,235.556Z" transform="translate(-221.283 -183.625)"/>
            <path id="Path_162" data-name="Path 162" class="cls-10" d="M250.163,239.9l-8.216-4.743c-.661-.381-.578-1.046.184-1.486l9.7-5.6a2.859,2.859,0,0,1,2.573-.106l8.218,4.743c.659.381.576,1.046-.185,1.486l-9.7,5.6A2.859,2.859,0,0,1,250.163,239.9Z" transform="translate(-216.125 -180.647)"/>
            <path id="Path_163" data-name="Path 163" class="cls-10" d="M260.578,235.947l-8.218-4.743c-.659-.381-.576-1.046.185-1.486l8.142-4.7a2.859,2.859,0,0,1,2.573-.106l8.216,4.743c.661.381.578,1.046-.184,1.486l-8.142,4.7A2.859,2.859,0,0,1,260.578,235.947Z" transform="translate(-208.991 -182.741)"/>
            <path id="Path_164" data-name="Path 164" class="cls-10" d="M268.108,240.294l-8.216-4.743c-.66-.381-.578-1.046.184-1.486l8.142-4.7a2.859,2.859,0,0,1,2.573-.106L279.007,234c.66.381.578,1.046-.184,1.486l-8.142,4.7A2.854,2.854,0,0,1,268.108,240.294Z" transform="translate(-203.833 -179.763)"/>
            <path id="Path_165" data-name="Path 165" class="cls-10" d="M275.638,244.642l-8.216-4.743c-.661-.381-.576-1.046.185-1.486l8.14-4.7a2.863,2.863,0,0,1,2.575-.108l8.216,4.745c.659.379.576,1.045-.185,1.484l-8.14,4.7A2.863,2.863,0,0,1,275.638,244.642Z" transform="translate(-198.675 -176.785)"/>
            <path id="Path_166" data-name="Path 166" class="cls-10" d="M283.168,248.99l-8.216-4.743c-.659-.381-.576-1.046.185-1.486l8.14-4.7a2.863,2.863,0,0,1,2.575-.106l8.216,4.743c.661.381.576,1.046-.185,1.486l-8.14,4.7A2.863,2.863,0,0,1,283.168,248.99Z" transform="translate(-193.517 -173.807)"/>
            <path id="Path_167" data-name="Path 167" class="cls-10" d="M290.7,253.337l-8.216-4.743c-.66-.381-.578-1.046.184-1.486l8.142-4.7a2.854,2.854,0,0,1,2.573-.106l8.216,4.743c.66.381.578,1.046-.184,1.486l-8.142,4.7A2.859,2.859,0,0,1,290.7,253.337Z" transform="translate(-188.359 -170.829)"/>
            <path id="Path_168" data-name="Path 168" class="cls-10" d="M298.229,257.685l-8.216-4.743c-.661-.381-.578-1.046.184-1.486l8.142-4.7a2.859,2.859,0,0,1,2.573-.106l8.216,4.743c.661.381.578,1.046-.184,1.486l-8.142,4.7A2.859,2.859,0,0,1,298.229,257.685Z" transform="translate(-183.201 -167.851)"/>
            <path id="Path_169" data-name="Path 169" class="cls-10" d="M305.759,262.033l-8.216-4.745c-.659-.381-.576-1.046.185-1.486l8.14-4.7a2.863,2.863,0,0,1,2.575-.106l8.216,4.743c.659.381.576,1.046-.185,1.486l-8.14,4.7A2.863,2.863,0,0,1,305.759,262.033Z" transform="translate(-178.042 -164.873)"/>
            <path id="Path_170" data-name="Path 170" class="cls-10" d="M313.289,266.38l-8.216-4.743c-.659-.381-.576-1.046.185-1.486l8.14-4.7a2.863,2.863,0,0,1,2.575-.108l8.216,4.745c.659.381.576,1.045-.185,1.484l-8.14,4.7A2.862,2.862,0,0,1,313.289,266.38Z" transform="translate(-172.884 -161.895)"/>
            <path id="Path_171" data-name="Path 171" class="cls-10" d="M320.82,270.728l-8.218-4.743c-.659-.382-.576-1.046.185-1.486l8.142-4.7a2.859,2.859,0,0,1,2.573-.106l8.216,4.743c.661.381.578,1.046-.184,1.486l-8.142,4.7A2.859,2.859,0,0,1,320.82,270.728Z" transform="translate(-167.726 -158.917)"/>
            <path id="Path_172" data-name="Path 172" class="cls-10" d="M328.35,275.075l-8.216-4.743c-.661-.381-.578-1.046.184-1.486l8.142-4.7a2.86,2.86,0,0,1,2.573-.108l8.218,4.745c.659.381.576,1.046-.185,1.486l-8.142,4.7A2.859,2.859,0,0,1,328.35,275.075Z" transform="translate(-162.568 -155.939)"/>
            <path id="Path_173" data-name="Path 173" class="cls-10" d="M271.673,233.889l-8.216-4.745c-.66-.381-.578-1.046.184-1.486l8.142-4.7a2.859,2.859,0,0,1,2.573-.106l8.218,4.743c.659.381.576,1.046-.185,1.486l-8.142,4.7A2.859,2.859,0,0,1,271.673,233.889Z" transform="translate(-201.391 -184.151)"/>
            <path id="Path_174" data-name="Path 174" class="cls-10" d="M264.03,229.476l-8.216-4.743c-.659-.381-.576-1.046.185-1.486l8.14-4.7a2.858,2.858,0,0,1,2.575-.108l8.216,4.743c.659.383.576,1.046-.185,1.486l-8.14,4.7A2.862,2.862,0,0,1,264.03,229.476Z" transform="translate(-206.626 -187.174)"/>
            <path id="Path_175" data-name="Path 175" class="cls-10" d="M260.228,227.281l-17.7-10.216c-.659-.381-.576-1.046.185-1.486l8.14-4.7a2.863,2.863,0,0,1,2.575-.108l17.7,10.218c.659.381.576,1.046-.185,1.486l-8.14,4.7A2.863,2.863,0,0,1,260.228,227.281Z" transform="translate(-215.723 -192.426)"/>
            <path id="Path_176" data-name="Path 176" class="cls-10" d="M264.224,221.124l-14.361-8.292c-.659-.381-.576-1.046.185-1.486l8.142-4.7a2.86,2.86,0,0,1,2.573-.108l14.361,8.292c.659.381.576,1.046-.185,1.486l-8.14,4.7A2.863,2.863,0,0,1,264.224,221.124Z" transform="translate(-210.702 -195.325)"/>
            <path id="Path_177" data-name="Path 177" class="cls-10" d="M279.2,238.236l-8.216-4.743c-.659-.381-.576-1.046.185-1.486l8.14-4.7a2.863,2.863,0,0,1,2.575-.108l8.216,4.745c.659.381.576,1.046-.185,1.484l-8.14,4.7A2.862,2.862,0,0,1,279.2,238.236Z" transform="translate(-196.233 -181.173)"/>
            <path id="Path_178" data-name="Path 178" class="cls-10" d="M286.734,242.584l-8.218-4.743c-.659-.382-.576-1.046.185-1.486l8.14-4.7a2.863,2.863,0,0,1,2.575-.106l8.216,4.743c.66.381.578,1.046-.185,1.486l-8.14,4.7A2.859,2.859,0,0,1,286.734,242.584Z" transform="translate(-191.075 -178.195)"/>
            <path id="Path_179" data-name="Path 179" class="cls-10" d="M294.264,246.931l-8.216-4.743c-.661-.381-.578-1.046.184-1.486l8.142-4.7a2.865,2.865,0,0,1,2.573-.108l8.216,4.745c.661.381.578,1.046-.184,1.486l-8.142,4.7A2.854,2.854,0,0,1,294.264,246.931Z" transform="translate(-185.917 -175.217)"/>
            <path id="Path_180" data-name="Path 180" class="cls-10" d="M301.794,251.279l-8.216-4.743c-.66-.381-.578-1.046.185-1.486l8.14-4.7a2.859,2.859,0,0,1,2.573-.106l8.218,4.743c.659.381.576,1.046-.185,1.486l-8.14,4.7A2.863,2.863,0,0,1,301.794,251.279Z" transform="translate(-180.759 -172.239)"/>
            <path id="Path_181" data-name="Path 181" class="cls-10" d="M309.324,255.627l-8.216-4.745c-.659-.381-.576-1.045.185-1.486l8.14-4.7a2.863,2.863,0,0,1,2.575-.106l8.216,4.743c.659.381.576,1.046-.185,1.486l-8.14,4.7A2.863,2.863,0,0,1,309.324,255.627Z" transform="translate(-175.6 -169.261)"/>
            <path id="Path_182" data-name="Path 182" class="cls-10" d="M316.854,259.974l-8.216-4.743c-.659-.381-.576-1.046.185-1.486l8.14-4.7a2.863,2.863,0,0,1,2.575-.108l8.216,4.745c.661.381.578,1.046-.185,1.486l-8.14,4.7A2.863,2.863,0,0,1,316.854,259.974Z" transform="translate(-170.442 -166.283)"/>
            <path id="Path_183" data-name="Path 183" class="cls-10" d="M324.385,264.322l-8.216-4.743c-.661-.381-.578-1.046.184-1.486l8.142-4.7a2.859,2.859,0,0,1,2.573-.106l8.216,4.743c.66.381.578,1.046-.184,1.486l-8.142,4.7A2.854,2.854,0,0,1,324.385,264.322Z" transform="translate(-165.284 -163.305)"/>
            <path id="Path_184" data-name="Path 184" class="cls-10" d="M331.915,268.669l-8.216-4.743c-.661-.381-.578-1.046.185-1.486l8.14-4.7a2.854,2.854,0,0,1,2.573-.106l8.218,4.743c.659.381.576,1.046-.185,1.486l-8.142,4.7A2.854,2.854,0,0,1,331.915,268.669Z" transform="translate(-160.126 -160.327)"/>
            <path id="Path_185" data-name="Path 185" class="cls-10" d="M339.445,273.017l-8.216-4.743c-.659-.381-.576-1.046.185-1.486l8.14-4.7a2.863,2.863,0,0,1,2.575-.108l8.216,4.743c.659.381.576,1.046-.185,1.486l-8.14,4.7A2.863,2.863,0,0,1,339.445,273.017Z" transform="translate(-154.968 -157.349)"/>
            <path id="Path_186" data-name="Path 186" class="cls-10" d="M356.779,283.025l-17.926-10.349c-.659-.382-.576-1.046.185-1.486l8.14-4.7a2.862,2.862,0,0,1,2.575-.106l17.927,10.351c.661.379.576,1.045-.185,1.484l-8.14,4.7A2.863,2.863,0,0,1,356.779,283.025Z" transform="translate(-149.746 -154.334)"/>
            <path id="Path_187" data-name="Path 187" class="cls-10" d="M370.3,273.9l-15.131-8.737c-.661-.381-.578-1.046.185-1.486l8.14-4.7a2.863,2.863,0,0,1,2.575-.106l15.131,8.735c.659.381.576,1.046-.185,1.486l-8.142,4.7A2.859,2.859,0,0,1,370.3,273.9Z" transform="translate(-138.567 -159.475)"/>
            <path id="Path_188" data-name="Path 188" class="cls-10" d="M292.39,237.386l-8.216-4.745c-.659-.381-.576-1.045.185-1.486l8.14-4.7a2.863,2.863,0,0,1,2.575-.106l8.216,4.743c.659.381.576,1.046-.185,1.486l-8.14,4.7A2.863,2.863,0,0,1,292.39,237.386Z" transform="translate(-187.2 -181.755)"/>
            <path id="Path_189" data-name="Path 189" class="cls-10" d="M284.673,232.93l-8.216-4.743c-.66-.382-.578-1.046.184-1.486l8.142-4.7a2.859,2.859,0,0,1,2.573-.106l8.216,4.743c.661.381.578,1.046-.184,1.486l-8.142,4.7A2.854,2.854,0,0,1,284.673,232.93Z" transform="translate(-192.486 -184.808)"/>
            <path id="Path_190" data-name="Path 190" class="cls-10" d="M276.955,228.474l-8.216-4.743c-.659-.381-.576-1.046.185-1.486l8.14-4.7a2.868,2.868,0,0,1,2.575-.106l8.216,4.743c.659.381.576,1.046-.185,1.486l-8.14,4.7A2.863,2.863,0,0,1,276.955,228.474Z" transform="translate(-197.772 -187.86)"/>
            <path id="Path_191" data-name="Path 191" class="cls-10" d="M269.238,224.018l-8.218-4.743c-.659-.381-.576-1.046.185-1.486l8.142-4.7a2.86,2.86,0,0,1,2.573-.108l8.216,4.745c.66.381.578,1.046-.184,1.486l-8.142,4.7A2.859,2.859,0,0,1,269.238,224.018Z" transform="translate(-203.059 -190.912)"/>
            <path id="Path_192" data-name="Path 192" class="cls-10" d="M299.921,241.733,291.7,236.99c-.659-.381-.576-1.046.185-1.486l8.142-4.7a2.86,2.86,0,0,1,2.573-.108l8.216,4.745c.66.381.578,1.045-.185,1.484l-8.14,4.7A2.859,2.859,0,0,1,299.921,241.733Z" transform="translate(-182.042 -178.778)"/>
            <path id="Path_193" data-name="Path 193" class="cls-10" d="M307.451,246.081l-8.216-4.743c-.661-.381-.578-1.046.184-1.486l8.142-4.7a2.859,2.859,0,0,1,2.573-.106l8.216,4.743c.661.381.578,1.046-.184,1.486l-8.142,4.7A2.854,2.854,0,0,1,307.451,246.081Z" transform="translate(-176.884 -175.8)"/>
            <path id="Path_194" data-name="Path 194" class="cls-10" d="M314.981,250.428l-8.216-4.743c-.661-.381-.576-1.046.185-1.486l8.14-4.7a2.858,2.858,0,0,1,2.575-.106l8.216,4.743c.659.381.576,1.046-.185,1.486l-8.14,4.7A2.863,2.863,0,0,1,314.981,250.428Z" transform="translate(-171.726 -172.822)"/>
            <path id="Path_195" data-name="Path 195" class="cls-10" d="M322.511,254.776l-8.216-4.743c-.659-.381-.576-1.046.185-1.486l8.14-4.7a2.863,2.863,0,0,1,2.575-.106l8.216,4.743c.659.381.576,1.046-.185,1.486l-8.14,4.7A2.863,2.863,0,0,1,322.511,254.776Z" transform="translate(-166.567 -169.844)"/>
            <path id="Path_196" data-name="Path 196" class="cls-10" d="M330.042,259.124l-8.218-4.745c-.659-.381-.576-1.046.185-1.484l8.142-4.7a2.859,2.859,0,0,1,2.573-.106l8.216,4.743c.661.381.578,1.046-.184,1.486l-8.142,4.7A2.86,2.86,0,0,1,330.042,259.124Z" transform="translate(-161.409 -166.865)"/>
            <path id="Path_197" data-name="Path 197" class="cls-10" d="M337.572,263.471l-8.216-4.743c-.661-.381-.578-1.046.184-1.486l8.142-4.7a2.86,2.86,0,0,1,2.573-.108l8.216,4.745c.661.381.578,1.045-.184,1.484l-8.142,4.7A2.859,2.859,0,0,1,337.572,263.471Z" transform="translate(-156.251 -163.887)"/>
            <path id="Path_198" data-name="Path 198" class="cls-10" d="M345.1,267.819l-8.216-4.743c-.66-.382-.576-1.046.185-1.486l8.14-4.7a2.863,2.863,0,0,1,2.575-.106L356,261.526c.659.381.576,1.046-.185,1.486l-8.14,4.7A2.858,2.858,0,0,1,345.1,267.819Z" transform="translate(-151.093 -160.909)"/>
            <path id="Path_199" data-name="Path 199" class="cls-10" d="M352.632,272.166l-8.216-4.743c-.659-.381-.576-1.046.185-1.486l8.14-4.7a2.868,2.868,0,0,1,2.575-.108l8.216,4.745c.661.381.576,1.046-.185,1.486l-8.14,4.7A2.862,2.862,0,0,1,352.632,272.166Z" transform="translate(-145.935 -157.931)"/>
            <path id="Path_200" data-name="Path 200" class="cls-10" d="M360.163,276.514l-8.216-4.743c-.66-.381-.578-1.046.184-1.486l8.142-4.7a2.859,2.859,0,0,1,2.573-.106l8.216,4.743c.661.381.578,1.046-.184,1.486l-8.142,4.7A2.859,2.859,0,0,1,360.163,276.514Z" transform="translate(-140.777 -154.953)"/>
            <path id="Path_201" data-name="Path 201" class="cls-10" d="M288.425,226.632l-8.216-4.743c-.659-.381-.576-1.046.185-1.486l8.14-4.7a2.858,2.858,0,0,1,2.575-.108l8.216,4.743c.659.383.576,1.046-.185,1.486l-8.14,4.7A2.863,2.863,0,0,1,288.425,226.632Z" transform="translate(-189.916 -189.122)"/>
            <path id="Path_202" data-name="Path 202" class="cls-10" d="M280.932,222.306l-8.216-4.743c-.659-.381-.576-1.046.185-1.486l8.14-4.7a2.858,2.858,0,0,1,2.575-.108l8.216,4.743c.66.382.576,1.046-.185,1.486l-8.14,4.7A2.863,2.863,0,0,1,280.932,222.306Z" transform="translate(-195.048 -192.085)"/>
            <path id="Path_203" data-name="Path 203" class="cls-10" d="M273.44,217.98l-8.218-4.743c-.659-.381-.576-1.046.185-1.486l8.142-4.7a2.854,2.854,0,0,1,2.573-.108l8.216,4.743c.661.382.578,1.046-.184,1.486l-8.142,4.7A2.859,2.859,0,0,1,273.44,217.98Z" transform="translate(-200.181 -195.048)"/>
            <path id="Path_204" data-name="Path 204" class="cls-10" d="M265.947,213.654l-8.216-4.743c-.661-.381-.578-1.046.184-1.486l8.142-4.7a2.854,2.854,0,0,1,2.573-.108l8.216,4.743c.661.382.578,1.046-.184,1.486l-8.142,4.7A2.859,2.859,0,0,1,265.947,213.654Z" transform="translate(-205.313 -198.011)"/>
            <path id="Path_205" data-name="Path 205" class="cls-10" d="M273.652,207.927l-8.216-4.743c-.661-.383-.578-1.046.184-1.486l2.691-1.554a2.858,2.858,0,0,1,2.575-.108l8.216,4.743c.659.381.576,1.046-.185,1.486l-2.691,1.554A2.86,2.86,0,0,1,273.652,207.927Z" transform="translate(-200.036 -199.779)"/>
            <path id="Path_206" data-name="Path 206" class="cls-10" d="M283.43,213.572l-8.216-4.743c-.66-.381-.578-1.046.184-1.486l2.691-1.554a2.857,2.857,0,0,1,2.575-.106l8.216,4.743c.661.381.576,1.046-.185,1.486L286,213.466A2.859,2.859,0,0,1,283.43,213.572Z" transform="translate(-193.338 -195.912)"/>
            <path id="Path_207" data-name="Path 207" class="cls-10" d="M290.891,217.88l-8.216-4.743c-.659-.381-.576-1.046.185-1.486l2.691-1.554a2.857,2.857,0,0,1,2.575-.106l8.216,4.743c.659.381.576,1.046-.185,1.486l-2.691,1.554A2.863,2.863,0,0,1,290.891,217.88Z" transform="translate(-188.227 -192.961)"/>
            <path id="Path_208" data-name="Path 208" class="cls-10" d="M298.353,222.188l-8.216-4.743c-.661-.381-.578-1.046.184-1.486l2.693-1.554a2.86,2.86,0,0,1,2.573-.108l8.216,4.745c.66.381.578,1.046-.184,1.486l-2.693,1.554A2.859,2.859,0,0,1,298.353,222.188Z" transform="translate(-183.116 -190.011)"/>
            <path id="Path_209" data-name="Path 209" class="cls-10" d="M305.814,226.5l-8.216-4.743c-.659-.381-.576-1.046.185-1.486l2.691-1.554a2.863,2.863,0,0,1,2.575-.108l8.216,4.745c.659.381.576,1.046-.185,1.486l-2.691,1.554A2.863,2.863,0,0,1,305.814,226.5Z" transform="translate(-178.005 -187.06)"/>
            <path id="Path_210" data-name="Path 210" class="cls-10" d="M347.471,250.547l-8.216-4.745c-.659-.381-.576-1.046.185-1.486l2.691-1.554a2.859,2.859,0,0,1,2.573-.106l8.218,4.743c.659.381.576,1.046-.185,1.486l-2.691,1.554A2.863,2.863,0,0,1,347.471,250.547Z" transform="translate(-149.47 -170.585)"/>
            <path id="Path_211" data-name="Path 211" class="cls-10" d="M354.933,254.854l-8.216-4.743c-.661-.381-.578-1.046.184-1.486l2.693-1.554a2.859,2.859,0,0,1,2.573-.106l8.216,4.743c.66.381.578,1.046-.184,1.486l-2.693,1.554A2.854,2.854,0,0,1,354.933,254.854Z" transform="translate(-144.359 -167.635)"/>
            <path id="Path_212" data-name="Path 212" class="cls-10" d="M362.394,259.163l-8.216-4.745c-.659-.381-.576-1.046.185-1.486l2.691-1.554a2.862,2.862,0,0,1,2.575-.106l8.216,4.743c.659.381.576,1.046-.185,1.486l-2.691,1.553A2.868,2.868,0,0,1,362.394,259.163Z" transform="translate(-139.248 -164.684)"/>
            <path id="Path_213" data-name="Path 213" class="cls-10" d="M369.856,263.47l-8.216-4.743c-.661-.381-.578-1.046.185-1.486l2.691-1.554a2.859,2.859,0,0,1,2.573-.106l8.216,4.743c.661.381.578,1.046-.184,1.486l-2.691,1.554A2.857,2.857,0,0,1,369.856,263.47Z" transform="translate(-134.137 -161.733)"/>
            <path id="Path_214" data-name="Path 214" class="cls-10" d="M295.955,230.98l-8.216-4.745c-.659-.381-.576-1.045.185-1.486l8.14-4.7a2.863,2.863,0,0,1,2.575-.106l8.216,4.743c.66.381.576,1.046-.185,1.486l-8.14,4.7A2.863,2.863,0,0,1,295.955,230.98Z" transform="translate(-184.758 -186.143)"/>
            <path id="Path_215" data-name="Path 215" class="cls-10" d="M303.486,235.327l-8.216-4.743c-.661-.381-.578-1.046.184-1.486l8.142-4.7a2.86,2.86,0,0,1,2.573-.108l8.216,4.745c.661.381.578,1.046-.184,1.484l-8.142,4.7A2.859,2.859,0,0,1,303.486,235.327Z" transform="translate(-179.6 -183.166)"/>
            <path id="Path_216" data-name="Path 216" class="cls-10" d="M311.016,239.675l-8.216-4.743c-.66-.381-.578-1.046.184-1.486l8.142-4.7a2.859,2.859,0,0,1,2.573-.106l8.218,4.743c.659.381.576,1.046-.185,1.486l-8.142,4.7A2.859,2.859,0,0,1,311.016,239.675Z" transform="translate(-174.442 -180.188)"/>
            <path id="Path_217" data-name="Path 217" class="cls-10" d="M318.546,244.022l-8.216-4.743c-.659-.381-.576-1.046.185-1.486l8.14-4.7a2.863,2.863,0,0,1,2.575-.106l8.216,4.743c.659.381.576,1.046-.185,1.486l-8.14,4.7A2.857,2.857,0,0,1,318.546,244.022Z" transform="translate(-169.283 -177.209)"/>
            <path id="Path_218" data-name="Path 218" class="cls-10" d="M326.076,248.37l-8.216-4.743c-.659-.381-.576-1.046.185-1.486l8.14-4.7a2.868,2.868,0,0,1,2.575-.106l8.216,4.743c.661.381.576,1.046-.185,1.486l-8.14,4.7A2.863,2.863,0,0,1,326.076,248.37Z" transform="translate(-164.125 -174.231)"/>
            <path id="Path_219" data-name="Path 219" class="cls-10" d="M333.607,252.718l-8.216-4.745c-.661-.381-.578-1.045.184-1.485l8.142-4.7a2.859,2.859,0,0,1,2.573-.106l8.216,4.743c.661.381.578,1.046-.184,1.486l-8.142,4.7A2.86,2.86,0,0,1,333.607,252.718Z" transform="translate(-158.967 -171.253)"/>
            <path id="Path_220" data-name="Path 220" class="cls-10" d="M341.137,257.065l-8.216-4.743c-.661-.381-.578-1.046.184-1.486l8.142-4.7a2.86,2.86,0,0,1,2.573-.108l8.218,4.745c.659.381.576,1.045-.185,1.486l-8.142,4.7A2.859,2.859,0,0,1,341.137,257.065Z" transform="translate(-153.809 -168.275)"/>
            <path id="Path_221" data-name="Path 221" class="cls-10" d="M348.667,261.413l-8.216-4.743c-.659-.381-.576-1.046.185-1.486l8.14-4.7a2.863,2.863,0,0,1,2.575-.106l8.216,4.743c.659.381.576,1.046-.185,1.486l-8.14,4.7A2.863,2.863,0,0,1,348.667,261.413Z" transform="translate(-148.651 -165.297)"/>
            <path id="Path_222" data-name="Path 222" class="cls-10" d="M356.2,265.76l-8.218-4.743c-.659-.381-.576-1.046.185-1.486l8.142-4.7a2.859,2.859,0,0,1,2.573-.106l8.216,4.743c.661.381.578,1.046-.185,1.486l-8.14,4.7A2.859,2.859,0,0,1,356.2,265.76Z" transform="translate(-143.493 -162.319)"/>
            <path id="Path_223" data-name="Path 223" class="cls-10" d="M259.4,235.267,235.2,221.3c-.661-.381-.578-1.046.185-1.486l8.14-4.7A2.857,2.857,0,0,1,246.1,215l24.2,13.97c.661.381.578,1.046-.184,1.486l-8.142,4.7A2.859,2.859,0,0,1,259.4,235.267Z" transform="translate(-220.745 -189.527)"/>
            <path id="Path_224" data-name="Path 224" class="cls-10" d="M351.912,288.679l-24.2-13.97c-.66-.382-.576-1.046.185-1.486l8.14-4.7a2.863,2.863,0,0,1,2.575-.106l24.2,13.97c.661.381.578,1.046-.184,1.486l-8.142,4.7A2.86,2.86,0,0,1,351.912,288.679Z" transform="translate(-157.376 -152.941)"/>
            <path id="Path_225" data-name="Path 225" class="cls-10" d="M315.3,277.511l-8.216-4.745c-.659-.381-.576-1.046.185-1.486l9.7-5.6a2.863,2.863,0,0,1,2.575-.106l8.216,4.743c.659.381.576,1.046-.185,1.486l-9.7,5.6A2.863,2.863,0,0,1,315.3,277.511Z" transform="translate(-171.507 -154.887)"/>
            <path id="Path_226" data-name="Path 226" class="cls-10" d="M262.617,247.093l-13.139-7.586c-.661-.381-.576-1.046.185-1.486l9.7-5.6a2.857,2.857,0,0,1,2.575-.106l13.14,7.586c.661.381.576,1.046-.185,1.486l-9.7,5.6A2.863,2.863,0,0,1,262.617,247.093Z" transform="translate(-210.967 -177.669)"/>
            <path id="Path_227" data-name="Path 227" class="cls-10" d="M310.047,274.476l-13.141-7.586c-.659-.381-.576-1.046.185-1.486l9.7-5.6a2.859,2.859,0,0,1,2.573-.106l13.139,7.586c.661.381.578,1.046-.184,1.486l-9.7,5.6A2.854,2.854,0,0,1,310.047,274.476Z" transform="translate(-178.479 -158.912)"/>
            <path id="Path_228" data-name="Path 228" class="cls-10" d="M273.482,253.366l-13.139-7.587c-.661-.381-.578-1.046.184-1.484l9.7-5.6a2.854,2.854,0,0,1,2.573-.108l13.141,7.587c.659.381.576,1.045-.185,1.486l-9.7,5.6A2.859,2.859,0,0,1,273.482,253.366Z" transform="translate(-203.525 -173.373)"/>
            <path id="Path_229" data-name="Path 229" class="cls-10" d="M272.67,238.514,329.8,271.5a.781.781,0,0,1,0,1.481l-9.889,5.71a2.837,2.837,0,0,1-2.568,0l-57.129-32.984Z" transform="translate(-203.308 -173.247)"/>
            <path id="Path_230" data-name="Path 230" class="cls-10" d="M335.505,280.522l9.153,5.284c.541.312.472.858-.152,1.218l-3.968,2.29a2.346,2.346,0,0,1-2.11.088l-9.151-5.284c-.541-.312-.473-.858.152-1.218l3.966-2.29A2.346,2.346,0,0,1,335.505,280.522Z" transform="translate(-156.25 -144.616)"/>
            <path id="Path_231" data-name="Path 231" class="cls-10" d="M327.912,276.137l9.153,5.284c.541.313.473.858-.152,1.218l-3.966,2.292a2.351,2.351,0,0,1-2.11.088l-9.153-5.284c-.541-.313-.474-.858.152-1.218l3.966-2.292A2.351,2.351,0,0,1,327.912,276.137Z" transform="translate(-161.451 -147.619)"/>
            <path id="Path_232" data-name="Path 232" class="cls-10" d="M320.382,271.791l9.153,5.284c.541.312.472.858-.152,1.218l-3.968,2.29a2.346,2.346,0,0,1-2.11.088l-9.151-5.284c-.541-.312-.473-.858.152-1.218l3.966-2.29A2.346,2.346,0,0,1,320.382,271.791Z" transform="translate(-166.609 -150.597)"/>
            <path id="Path_233" data-name="Path 233" class="cls-10" d="M332.072,273.738l9.151,5.284c.541.312.474.858-.152,1.217L337.1,282.53a2.346,2.346,0,0,1-2.11.088l-9.153-5.284c-.541-.312-.472-.858.152-1.218l3.968-2.29A2.34,2.34,0,0,1,332.072,273.738Z" transform="translate(-158.603 -149.264)"/>
          </g>
          <path id="Path_234" data-name="Path 234" class="cls-11" d="M509.608,400.985,267.2,261.034c-3.811-2.2-5.8-7.564-4.443-11.977L317.579,71.069c1.358-4.413,5.549-6.207,9.36-4.007l242.4,139.953c3.811,2.2,5.8,7.562,4.443,11.977L518.969,396.978C517.612,401.393,513.42,403.186,509.608,400.985Z" transform="translate(-54.449 -64.676)"/>
          <path id="Path_235" data-name="Path 235" class="cls-12" d="M505.206,392.142,270.087,256.284c-3.648-2.106-5.552-7.237-4.253-11.461l52.41-170.155c1.3-4.224,5.309-5.941,8.957-3.835L562.32,206.691c3.648,2.106,5.552,7.239,4.253,11.463l-52.41,170.153C512.864,392.531,508.854,394.248,505.206,392.142Z" transform="translate(-52.331 -62.066)"/>
          <path id="Path_236" data-name="Path 236" class="cls-13" d="M505.206,392.142,270.087,256.284c-3.648-2.106-5.552-7.237-4.253-11.461l52.41-170.155c1.3-4.224,5.309-5.941,8.957-3.835L562.32,206.691c3.648,2.106,5.552,7.239,4.253,11.463l-52.41,170.153C512.864,392.531,508.854,394.248,505.206,392.142Z" transform="translate(-52.331 -62.066)"/>
          <path id="Path_237" data-name="Path 237" class="cls-13" d="M505.206,392.142,270.087,256.284c-3.648-2.106-5.552-7.237-4.253-11.461l52.41-170.155c1.3-4.224,5.309-5.941,8.957-3.835L562.32,206.691c3.648,2.106,5.552,7.239,4.253,11.463l-52.41,170.153C512.864,392.531,508.854,394.248,505.206,392.142Z" transform="translate(-52.331 -62.066)"/>
          <path id="Path_238" data-name="Path 238" class="cls-14" d="M466.236,319.68,307.073,227.788a7.05,7.05,0,0,1-2.917-7.865l35.993-116.865c.891-2.9,3.643-4.076,6.147-2.632l159.164,91.894a7.049,7.049,0,0,1,2.917,7.864L472.383,317.048C471.49,319.946,468.739,321.125,466.236,319.68Z" transform="translate(-25.994 -41.602)"/>
          <g id="Group_68" data-name="Group 68" transform="translate(256.376 61.027)">
            <path id="Path_239" data-name="Path 239" class="cls-15" d="M453.473,321.354,294.31,229.462a7.052,7.052,0,0,1-2.917-7.865l35.995-116.865c.891-2.9,3.643-4.076,6.145-2.632L492.7,193.993a7.05,7.05,0,0,1,2.918,7.864L459.62,318.722C458.729,321.62,455.977,322.8,453.473,321.354Z" transform="translate(-291.113 -101.482)"/>
          </g>
          <g id="Group_69" data-name="Group 69" class="cls-16" transform="translate(256.376 61.027)">
            <path id="Path_240" data-name="Path 240" class="cls-10" d="M453.473,321.354,294.31,229.462a7.052,7.052,0,0,1-2.917-7.865l35.995-116.865c.891-2.9,3.643-4.076,6.145-2.632L492.7,193.993a7.05,7.05,0,0,1,2.918,7.864L459.62,318.722C458.729,321.62,455.977,322.8,453.473,321.354Z" transform="translate(-291.113 -101.482)"/>
          </g>
          <path id="Path_241" data-name="Path 241" class="cls-8" d="M477.272,193.993,318.109,102.1a3.963,3.963,0,0,0-4.479.153,4.287,4.287,0,0,1,2.3.588l159.164,91.894a7.05,7.05,0,0,1,2.918,7.864L442.016,319.463a4.8,4.8,0,0,1-1.668,2.479,4.211,4.211,0,0,0,3.849-3.22l35.993-116.865A7.047,7.047,0,0,0,477.272,193.993Z" transform="translate(-19.312 -40.455)"/>
          <path id="Path_242" data-name="Path 242" class="cls-13" d="M297.72,316.192a11.975,11.975,0,0,1-5.9-1.383v0l-63.768-36.815a4.61,4.61,0,0,1-2.62-3.929c0-1.808,1.282-3.584,3.517-4.875l32.824-18.953c4.012-2.314,9.9-2.541,13.407-.517l63.768,36.817a4.609,4.609,0,0,1,2.622,3.929c0,1.806-1.282,3.584-3.517,4.873l-32.827,18.954A15.374,15.374,0,0,1,297.72,316.192ZM269.314,250.2a13.69,13.69,0,0,0-6.619,1.629l-32.823,18.951c-1.651.954-2.6,2.15-2.6,3.281a2.907,2.907,0,0,0,1.7,2.332l63.768,36.819c2.893,1.667,8.187,1.434,11.564-.519l32.825-18.951c1.651-.952,2.6-2.147,2.6-3.279a2.912,2.912,0,0,0-1.7-2.334l-63.767-36.815A10.116,10.116,0,0,0,269.314,250.2Z" transform="translate(-79.725 60.141)"/>
        </g>
      </g>
    </g>
  </g>
</svg>
