<svg xmlns="http://www.w3.org/2000/svg" width="282.436" height="323.57" viewBox="0 0 282.436 323.57">
  <defs>
    <style>
      .cls-1 {
        fill: none;
        stroke: #888;
        stroke-width: 3px;
      }
    </style>
  </defs>
  <path id="Path_278" data-name="Path 278" class="cls-1" d="M173.031-425.59q56.749,0,91.839,19.277t35.089,56.1a89.278,89.278,0,0,1-4.765,28.808q-4.765,14.079-20.144,27.942t-39.638,18.628q40.288,3.466,60.215,27.725t19.927,53.284q0,40.288-37.905,64.547T176.063-105.02q-68.013,0-104.4-27.725T36.139-207.689H75.127q.866,33.79,26.209,52.2t72.128,18.411q45.053,0,72.345-16.245t27.292-45.27q0-26.859-23.61-42.67t-66.93-15.812H118.447v-31.191h64.547q37.255,0,57.616-16.028t20.361-39.421q0-25.992-23.826-38.555t-63.681-12.563q-73.644,0-93.138,48.519L43.937-357.577Q70.362-425.59,173.031-425.59Z" transform="translate(-34.619 427.09)"/>
</svg>
