<svg xmlns="http://www.w3.org/2000/svg" width="273.318" height="319.238" viewBox="0 0 273.318 319.238">
  <defs>
    <style>
      .cls-1 {
        fill: none;
        stroke: #888;
        stroke-width: 3px;
      }
    </style>
  </defs>
  <path id="Path_243" data-name="Path 243" class="cls-1" d="M34.4-109.352v-22.093l151.621-120q28.591-22.527,44.62-42.67t16.028-43.537q0-26.425-21.877-39.855t-60-13.429q-80.142,0-86.207,71.045H39.162q1.733-24.693,10.613-43.97T71.219-394.4a107.048,107.048,0,0,1,29.891-18.628,144.309,144.309,0,0,1,33.573-9.964,218,218,0,0,1,34.44-2.6q53.717,0,86.64,23.176t32.923,61.731q0,54.584-67.58,107.867L105.875-140.976a266.307,266.307,0,0,1,42.454-3.032H304.715v34.656Z" transform="translate(-32.897 427.09)"/>
</svg>
