<svg xmlns="http://www.w3.org/2000/svg" width="70" height="65" viewBox="0 0 70 65">
  <defs>
    <style>
      .cls-1 {
        fill: #fff;
      }
    </style>
  </defs>
  <g id="_003-website" data-name="003-website" transform="translate(-8 -24)">
    <path id="Path_534" data-name="Path 534" class="cls-1" d="M74.048,80.035A3.941,3.941,0,0,0,78,76.112V27.922A3.941,3.941,0,0,0,74.048,24h-62.1A3.941,3.941,0,0,0,8,27.922v48.19a3.941,3.941,0,0,0,3.952,3.922H41.871v2.435a3.384,3.384,0,0,0-2.063,2.048H9.129a1.121,1.121,0,1,0,0,2.241H39.808a3.394,3.394,0,0,0,6.385,0H76.871a1.121,1.121,0,1,0,0-2.241H46.192a3.384,3.384,0,0,0-2.063-2.048V80.035ZM10.258,27.922a1.689,1.689,0,0,1,1.694-1.681h62.1a1.689,1.689,0,0,1,1.694,1.681v2.8H10.258Zm1.694,49.871a1.689,1.689,0,0,1-1.694-1.681V32.966H75.742V76.112a1.689,1.689,0,0,1-1.694,1.681H44.129V76.64a20.323,20.323,0,1,0-2.258,0v1.153ZM50.8,53.138h9.945a17.8,17.8,0,0,1,0,6.724H50.8q.1-1.652.1-3.362T50.8,53.138ZM50.612,50.9a36.652,36.652,0,0,0-1.757-8.241,16.453,16.453,0,0,0-1.737-3.616A18.081,18.081,0,0,1,60.16,50.9Zm-2.267,0H37.654c.862-7.754,3.415-12.328,5.346-12.328S47.484,43.143,48.346,50.9Zm-11.2-8.241A36.652,36.652,0,0,0,35.387,50.9H25.84A18.081,18.081,0,0,1,38.882,39.04,16.452,16.452,0,0,0,37.145,42.655ZM35.2,53.138q-.1,1.652-.1,3.362t.1,3.362H25.256a17.8,17.8,0,0,1,0-6.724Zm.186,8.966a36.652,36.652,0,0,0,1.757,8.241,16.452,16.452,0,0,0,1.737,3.616A18.081,18.081,0,0,1,25.84,62.1Zm1.967-5.6q0-1.755.1-3.362H48.541q.1,1.607.1,3.362t-.1,3.362H37.459Q37.358,58.255,37.355,56.5Zm11.5,13.845A36.652,36.652,0,0,0,50.612,62.1H60.16A18.081,18.081,0,0,1,47.118,73.96,16.452,16.452,0,0,0,48.855,70.345ZM43,86.759a1.121,1.121,0,1,1,1.129-1.121A1.125,1.125,0,0,1,43,86.759Zm0-12.328c-1.931,0-4.484-4.574-5.346-12.328H48.346C47.484,69.857,44.931,74.431,43,74.431Z" transform="translate(0 0)"/>
    <path id="Path_535" data-name="Path 535" class="cls-1" d="M32.968,49.935h.968a.968.968,0,0,0,0-1.935h-.968a.968.968,0,0,0,0,1.935Z" transform="translate(-21.097 -21.097)"/>
    <path id="Path_536" data-name="Path 536" class="cls-1" d="M64.968,49.935h.968a.968.968,0,0,0,0-1.935h-.968a.968.968,0,0,0,0,1.935Z" transform="translate(-49.226 -21.097)"/>
    <path id="Path_537" data-name="Path 537" class="cls-1" d="M96.968,49.935h.968a.968.968,0,1,0,0-1.935h-.968a.968.968,0,0,0,0,1.935Z" transform="translate(-75.49 -21.097)"/>
  </g>
</svg>
