<svg xmlns="http://www.w3.org/2000/svg" width="70" height="70" viewBox="0 0 70 70">
  <defs>
    <style>
      .cls-1 {
        fill: none;
      }

      .cls-2 {
        fill: #cdcdcd;
      }
    </style>
  </defs>
  <g id="Group_290" data-name="Group 290" transform="translate(5603 -2343)">
    <rect id="Rectangle_65" data-name="Rectangle 65" class="cls-1" width="70" height="70" transform="translate(-5603 2343)"/>
    <g id="_004-settings" data-name="004-settings" transform="translate(-5589 2343)">
      <path id="Path_538" data-name="Path 538" class="cls-2" d="M110.774,197.548A6.774,6.774,0,1,0,104,190.774,6.775,6.775,0,0,0,110.774,197.548Zm0-11.29a4.516,4.516,0,1,1-4.516,4.516A4.516,4.516,0,0,1,110.774,186.258Zm0,0" transform="translate(-89.323 -158.032)"/>
      <path id="Path_539" data-name="Path 539" class="cls-2" d="M33.129,133.452H37.49c.113.308.236.611.373.9l-3.082,3.083a1.13,1.13,0,0,0,0,1.6l4.054,4.054a1.129,1.129,0,0,0,1.6,0l3.084-3.082c.294.136.6.261.9.372v4.364a1.129,1.129,0,0,0,1.129,1.129H52.32a1.129,1.129,0,0,0,1.129-1.129v-4.361c.308-.113.611-.236.9-.373l3.083,3.082a1.13,1.13,0,0,0,1.6,0l4.054-4.054a1.129,1.129,0,0,0,0-1.6l-3.078-3.086c.137-.294.261-.6.373-.9h4.361a1.129,1.129,0,0,0,1.129-1.129v-6.774a1.129,1.129,0,0,0-1.129-1.129H60.381c-.113-.308-.236-.611-.373-.9l3.082-3.083a1.13,1.13,0,0,0,0-1.6l-4.054-4.054a1.129,1.129,0,0,0-1.6,0l-3.086,3.08c-.294-.137-.6-.261-.9-.373v-4.361A1.129,1.129,0,0,0,52.323,112H45.548a1.129,1.129,0,0,0-1.129,1.129v4.361c-.308.113-.611.236-.9.373l-3.083-3.082a1.13,1.13,0,0,0-1.6,0l-4.054,4.054a1.129,1.129,0,0,0,0,1.6l3.082,3.084c-.136.294-.261.6-.372.9H33.129A1.129,1.129,0,0,0,32,125.546v6.774a1.128,1.128,0,0,0,1.129,1.131Zm1.129-6.774h4.053a1.129,1.129,0,0,0,1.088-.822,9.234,9.234,0,0,1,.827-2.009,1.13,1.13,0,0,0-.186-1.355l-2.864-2.859,2.457-2.457L42.5,120.04a1.13,1.13,0,0,0,1.355.186,9.245,9.245,0,0,1,2.009-.827,1.13,1.13,0,0,0,.813-1.088v-4.053h4.516v4.053a1.129,1.129,0,0,0,.822,1.088,9.233,9.233,0,0,1,2.009.827,1.13,1.13,0,0,0,1.355-.186l2.864-2.864,2.457,2.457-2.87,2.868a1.13,1.13,0,0,0-.186,1.355,9.244,9.244,0,0,1,.827,2.009,1.13,1.13,0,0,0,1.088.813h4.053v4.516H59.56a1.129,1.129,0,0,0-1.088.822,9.233,9.233,0,0,1-.827,2.009,1.13,1.13,0,0,0,.186,1.355l2.864,2.864L58.239,140.7l-2.868-2.864a1.13,1.13,0,0,0-1.355-.186,9.245,9.245,0,0,1-2.009.827,1.13,1.13,0,0,0-.813,1.088v4.053H46.677V139.56a1.129,1.129,0,0,0-.822-1.088,9.234,9.234,0,0,1-2.009-.827,1.13,1.13,0,0,0-1.355.186L39.632,140.7l-2.457-2.457,2.864-2.868a1.13,1.13,0,0,0,.186-1.355,9.246,9.246,0,0,1-.827-2.009,1.13,1.13,0,0,0-1.088-.813H34.258Zm0,0" transform="translate(-27.484 -96.194)"/>
      <path id="Path_540" data-name="Path 540" class="cls-2" d="M124.516,417.032A4.516,4.516,0,1,0,120,412.516,4.516,4.516,0,0,0,124.516,417.032Zm0-6.774a2.258,2.258,0,1,1-2.258,2.258A2.258,2.258,0,0,1,124.516,410.258Zm0,0" transform="translate(-103.065 -350.419)"/>
      <path id="Path_541" data-name="Path 541" class="cls-2" d="M116.419,32h-11.29a1.129,1.129,0,0,0,0,2.258h11.29a1.129,1.129,0,0,0,0-2.258Zm0,0" transform="translate(-89.323 -27.484)"/>
      <path id="Path_542" data-name="Path 542" class="cls-2" d="M210.258,32h-1.129a1.129,1.129,0,0,0,0,2.258h1.129a1.129,1.129,0,1,0,0-2.258Zm0,0" transform="translate(-178.645 -27.484)"/>
      <path id="Path_543" data-name="Path 543" class="cls-2" d="M41.774,0H1.129A1.129,1.129,0,0,0,0,1.129V68.871A1.129,1.129,0,0,0,1.129,70H41.774A1.129,1.129,0,0,0,42.9,68.871V1.129A1.129,1.129,0,0,0,41.774,0ZM2.258,2.258H40.645V9.032H2.258ZM40.645,11.29v42.9H2.258V11.29Zm0,56.452H2.258V56.452H40.645Zm0,0"/>
    </g>
  </g>
</svg>
