<svg id="_048-behance" data-name="048-behance" xmlns="http://www.w3.org/2000/svg" width="30" height="30" viewBox="0 0 30 30">
  <path id="Path_9" data-name="Path 9" d="M25.605,0H4.395A4.4,4.4,0,0,0,0,4.395V25.605A4.4,4.4,0,0,0,4.395,30H25.605A4.4,4.4,0,0,0,30,25.605V4.395A4.4,4.4,0,0,0,25.605,0Zm2.637,25.605a2.64,2.64,0,0,1-2.637,2.637H4.395a2.64,2.64,0,0,1-2.637-2.637V4.395A2.64,2.64,0,0,1,4.395,1.758H25.605a2.64,2.64,0,0,1,2.637,2.637Zm0,0"/>
  <path id="Path_10" data-name="Path 10" d="M99.789,154.516A3.519,3.519,0,0,0,96.273,151H91v12.3h5.273a3.513,3.513,0,0,0,2.322-6.152A3.507,3.507,0,0,0,99.789,154.516Zm-1.758,5.273a1.76,1.76,0,0,1-1.758,1.758H92.758v-3.516h3.516A1.76,1.76,0,0,1,98.031,159.789Zm-5.273-3.516v-3.516h3.516a1.758,1.758,0,0,1,0,3.516Zm0,0" transform="translate(-85.668 -142.152)"/>
  <path id="Path_11" data-name="Path 11" d="M275.395,211a4.395,4.395,0,1,0,3.806,6.592l-1.522-.88a2.637,2.637,0,0,1-4.771-.439h6.881v-.879A4.4,4.4,0,0,0,275.395,211Zm-2.486,3.516a2.637,2.637,0,0,1,4.972,0Zm0,0" transform="translate(-255.121 -198.637)"/>
  <path id="Path_12" data-name="Path 12" d="M286,151h7.031v1.758H286Zm0,0" transform="translate(-269.242 -142.152)"/>
</svg>
