<svg id="Circular_text" data-name="Circular text" xmlns="http://www.w3.org/2000/svg" width="159.692" height="159.691" viewBox="0 0 159.692 159.691">
  <defs>
    <style>
      .cls-1 {
        fill: #fff;
      }
    </style>
  </defs>
  <g id="Group_372" data-name="Group 372" transform="translate(0 75.816)">
    <g id="Group_371" data-name="Group 371" transform="translate(0 0)">
      <g id="Group_370" data-name="Group 370">
        <path id="Path_671" data-name="Path 671" class="cls-1" d="M.346,7.372A3.784,3.784,0,0,1,.4,4.095a7.067,7.067,0,0,1,2.734-2.9A6.209,6.209,0,0,1,7.715.093a5.221,5.221,0,0,1,3.49,2.487,5.24,5.24,0,0,1,.754,4.281A6.213,6.213,0,0,1,9.066,10.53a6.62,6.62,0,0,1-3.658,1.16,3.95,3.95,0,0,1-3.009-1.4L4.422,9a2.433,2.433,0,0,0,1.612.5,3.848,3.848,0,0,0,1.941-.669A3.9,3.9,0,0,0,9.82,6.5a3.388,3.388,0,0,0-.507-2.718A3.233,3.233,0,0,0,7.055,2.205a4,4,0,0,0-2.84.686A4.37,4.37,0,0,0,2.664,4.432a2.385,2.385,0,0,0-.3,1.654Z" transform="translate(113.29 61.082)"/>
        <path id="Path_672" data-name="Path 672" class="cls-1" d="M0,3.729l2.154-.9L5.833,5.736,8.526,4.609,6.943.824,8.913,0,13.06,9.923l-5.3,2.217a3.719,3.719,0,0,1-2.757.2,3.015,3.015,0,0,1-1.784-1.777,3.134,3.134,0,0,1-.2-1.98A3.225,3.225,0,0,1,4.074,6.9Zm10.374,5.3L9.242,6.325,6.1,7.64a1.586,1.586,0,0,0-.91.831,1.423,1.423,0,0,0,.019,1.141A1.4,1.4,0,0,0,6,10.43a1.567,1.567,0,0,0,1.2-.07Z" transform="translate(101.68 65.905)"/>
        <path id="Path_673" data-name="Path 673" class="cls-1" d="M6.839,2.365.46,3.953,0,2.1,8.451,0l2.6,10.438L2.745,12.5l-.46-1.848L8.515,9.1,7.922,6.719l-5.38,1.34L2.089,6.239,7.47,4.9Z" transform="translate(92.063 69.941)"/>
        <path id="Path_674" data-name="Path 674" class="cls-1" d="M2.327.785l1.26,2.41,5.159-.421L9.6.19,11.925,0,8.147,11.1l-2.618.214L0,.975Zm5.8,3.843-3.628.3L6.578,8.87l.137-.011Z" transform="translate(79.537 72.257)"/>
        <path id="Path_675" data-name="Path 675" class="cls-1" d="M0,10.524.113,8.561l3.711.214L4.329,0,6.522.126,6.017,8.9l3.711.214-.113,1.963Z" transform="translate(70.466 72.797)"/>
        <path id="Path_676" data-name="Path 676" class="cls-1" d="M0,10.622,1.692,0,3.861.346,2.169,10.968Z" transform="translate(66.183 71.937)"/>
        <path id="Path_677" data-name="Path 677" class="cls-1" d="M2.324,9.838,0,9.195,7.1,0,9.631.7,11,12.239,8.675,11.6,7.689,3l-.133-.037Z" transform="translate(53.018 70.113)"/>
        <path id="Path_678" data-name="Path 678" class="cls-1" d="M9.5,4.446,3.506,1.736,4.291,0l7.935,3.59L7.8,13.39,0,9.863.785,8.127l5.85,2.647,1.013-2.24L2.6,6.248l.772-1.708L8.42,6.826Z" transform="translate(42.874 64.938)"/>
        <path id="Path_679" data-name="Path 679" class="cls-1" d="M5.165,1.509l-.809,2.6,3.95,3.346,2.426-1.226,1.782,1.509L2,12.925l-2-1.7L3.384,0ZM6.559,8.327,3.781,5.974,2.468,10.237l.106.089Z" transform="translate(27.354 52.822)"/>
        <path id="Path_680" data-name="Path 680" class="cls-1" d="M5.522,8.087l-3.595-4.3L6.453,0l1.1,1.321-.7.864.089.106a3.741,3.741,0,0,1,1.575.556A6.648,6.648,0,0,1,10.353,4.43,6.08,6.08,0,0,1,11.992,8.7a5.072,5.072,0,0,1-1.961,3.7,5.347,5.347,0,0,1-4.244,1.3A6.351,6.351,0,0,1,1.66,11.276,6.453,6.453,0,0,1,.02,7.731,3.78,3.78,0,0,1,.876,4.8L2.433,6.665a2.119,2.119,0,0,0-.182,1.544A4.3,4.3,0,0,0,3.2,9.985a4.052,4.052,0,0,0,2.665,1.6,3.533,3.533,0,0,0,2.724-.9A3.28,3.28,0,0,0,9.872,8.335,3.988,3.988,0,0,0,8.759,5.541,5.367,5.367,0,0,0,6.692,3.9a1.667,1.667,0,0,0-1.8.221l-.283.237L6.818,7Z" transform="translate(16.775 43.821)"/>
        <path id="Path_681" data-name="Path 681" class="cls-1" d="M10.877,6.64,7.564.96,9.209,0,13.6,7.525,4.312,12.946,0,5.554l1.645-.96,3.236,5.547L7,8.9,4.209,4.11l1.619-.944L8.622,7.957Z" transform="translate(8.688 34.718)"/>
        <path id="Path_682" data-name="Path 682" class="cls-1" d="M.757,5.82,0,3.839,10.043,0l.789,2.067-4.65,8.274.049.129,6.815-2.6.762,2L3.766,13.7l-.789-2.066L7.664,3.327,7.615,3.2Z" transform="translate(3.451 23.662)"/>
        <path id="Path_683" data-name="Path 683" class="cls-1" d="M6.332,0A3.777,3.777,0,0,1,9.35,1.278,7.065,7.065,0,0,1,11.021,4.9a6.219,6.219,0,0,1-.689,4.661A5.223,5.223,0,0,1,6.723,11.87a5.232,5.232,0,0,1-4.251-.9A6.211,6.211,0,0,1,.149,6.918,6.622,6.622,0,0,1,.438,3.09,3.949,3.949,0,0,1,2.859.82L3.3,3.176A2.433,2.433,0,0,0,2.228,4.485a3.846,3.846,0,0,0-.1,2.051A3.9,3.9,0,0,0,3.6,9.121a3.385,3.385,0,0,0,2.71.544A3.234,3.234,0,0,0,8.619,8.158a4,4,0,0,0,.424-2.892,4.368,4.368,0,0,0-.85-2.014A2.384,2.384,0,0,0,6.77,2.359Z" transform="translate(1.093 11.432)"/>
        <path id="Path_684" data-name="Path 684" class="cls-1" d="M.057,2.673,0,0,6.087,4.512l4.76-.1.046,2.181-4.76.1L.244,11.445.187,8.787,3.9,5.726l0-.138Z" transform="translate(0 0)"/>
      </g>
    </g>
  </g>
  <g id="Group_374" data-name="Group 374" transform="translate(6.191 10.116)">
    <g id="Group_373" data-name="Group 373" transform="translate(0 0)">
      <path id="Path_685" data-name="Path 685" class="cls-1" d="M4.663,0l5.566,2.779a4.264,4.264,0,0,1,2.489,2.856A5.729,5.729,0,0,1,12.1,9.518a5.842,5.842,0,0,1-2.749,2.861,4.229,4.229,0,0,1-3.788-.251L0,9.349,1,7.342l5.5,2.744a2.527,2.527,0,0,0,2.2.173,3.29,3.29,0,0,0,1.606-1.654,3.15,3.15,0,0,0,.335-2.237A2.581,2.581,0,0,0,9.166,4.738l-5.5-2.744Z" transform="translate(0 29.316)"/>
      <path id="Path_686" data-name="Path 686" class="cls-1" d="M13.638,8.293l-4.82.036-.081.112,1.432,4.6-1.6,2.184L6.533,8.619,0,8.735,1.576,6.576l4.481-.093.082-.112-1.274-4.3L6.378,0,8.254,6.261l6.932-.091Z" transform="translate(6.081 18.214)"/>
      <path id="Path_687" data-name="Path 687" class="cls-1" d="M1.491,0,5.617,13.3l-1.5,1.517L0,1.506Z" transform="translate(17.98 9.926)"/>
      <path id="Path_688" data-name="Path 688" class="cls-1" d="M8.37,0l3.721,4.987a4.267,4.267,0,0,1,.937,3.671,5.721,5.721,0,0,1-2.3,3.191,5.839,5.839,0,0,1-3.741,1.318,4.232,4.232,0,0,1-3.27-1.93L0,6.25,1.8,4.908,5.472,9.834a2.531,2.531,0,0,0,1.891,1.147,3.293,3.293,0,0,0,2.178-.754A3.152,3.152,0,0,0,10.847,8.38a2.582,2.582,0,0,0-.587-2.122L6.585,1.333Z" transform="translate(21.698 2.667)"/>
      <path id="Path_689" data-name="Path 689" class="cls-1" d="M1.9,0,7.263,9.324l-1.9,1.1L0,1.095Z" transform="translate(32.906 0)"/>
    </g>
  </g>
  <g id="Group_376" data-name="Group 376" transform="translate(71.033 0)">
    <g id="Group_375" data-name="Group 375">
      <path id="Path_690" data-name="Path 690" class="cls-1" d="M7.928,4.955a2.83,2.83,0,0,1,1.33.843,2.712,2.712,0,0,1,.625,1.728,2.725,2.725,0,0,1-.845,2.285,4.131,4.131,0,0,1-2.641.937l-5.812.317L0,.325,5.767.01a3.627,3.627,0,0,1,2.5.6A2.49,2.49,0,0,1,9.211,2.53,2.35,2.35,0,0,1,7.922,4.848Zm-5.7-3,.142,2.608,3.389-.185a1.344,1.344,0,0,0,.985-.408,1.327,1.327,0,0,0,.293-.986,1.254,1.254,0,0,0-.412-.916,1.312,1.312,0,0,0-.978-.3ZM6.211,9a1.5,1.5,0,0,0,1.1-.453,1.418,1.418,0,0,0,.327-1.056A1.474,1.474,0,0,0,7.18,6.465,1.447,1.447,0,0,0,6.053,6.1l-3.589.2.158,2.9Z" transform="translate(0 0.089)"/>
      <path id="Path_691" data-name="Path 691" class="cls-1" d="M9.61,11.694l-2.322-.241L5.449,7.138l-2.9-.3-.422,4.08L0,10.7,1.107,0,6.821.592A3.718,3.718,0,0,1,9.335,1.74a3.016,3.016,0,0,1,.715,2.414A3.128,3.128,0,0,1,9.281,5.99a3.229,3.229,0,0,1-1.729.964ZM3.039,2.069l-.3,2.919,3.392.351a1.582,1.582,0,0,0,1.2-.293,1.422,1.422,0,0,0,.529-1.011,1.406,1.406,0,0,0-.3-1.1,1.57,1.57,0,0,0-1.089-.514Z" transform="translate(11.429 0)"/>
      <path id="Path_692" data-name="Path 692" class="cls-1" d="M9.273,11.7,8.928,9,3.944,7.6l-1.7,2.126L0,9.1,7.4,0,9.927.709l1.594,11.618Zm-4.1-5.619,3.5.983L8.095,2.637,7.962,2.6Z" transform="translate(21.627 2.635)"/>
      <path id="Path_693" data-name="Path 693" class="cls-1" d="M12.262,3.66l1.91.92L9.506,14.271l-1.992-.96L5.213,4.1l-.124-.06L1.924,10.617,0,9.691,4.665,0,6.658.96l2.295,9.257.125.06Z" transform="translate(33.907 5.624)"/>
      <path id="Path_694" data-name="Path 694" class="cls-1" d="M10.571,3.09a5.329,5.329,0,0,1,2.322,3.435,5.245,5.245,0,0,1-1.125,4.032,5.344,5.344,0,0,1-3.495,2.354,5.259,5.259,0,0,1-4-1.107L0,8.715,6.3,0ZM5.359,10.166a2.94,2.94,0,0,0,2.474.615A3.744,3.744,0,0,0,9.969,9.216a3.489,3.489,0,0,0,.775-2.474,3.051,3.051,0,0,0-1.388-2.1L6.93,2.882l-4,5.528Z" transform="translate(45.018 12.147)"/>
      <path id="Path_695" data-name="Path 695" class="cls-1" d="M8.887,1.485,1.618,9.41,0,7.925,7.269,0Z" transform="translate(54.646 20.326)"/>
      <path id="Path_696" data-name="Path 696" class="cls-1" d="M13.652,6.411l1.377,1.612-8.17,6.991L5.421,13.332l1.6-9.356-.089-.1L1.388,8.614,0,6.991,8.17,0,9.608,1.681l-1.626,9.4.09.105Z" transform="translate(57.822 23.995)"/>
      <path id="Path_697" data-name="Path 697" class="cls-1" d="M6.4,5.833,9.2,10.69,4.092,13.639l-.86-1.49.837-.732L4,11.3a3.744,3.744,0,0,1-1.456-.818A6.653,6.653,0,0,1,1.011,8.605,6.086,6.086,0,0,1,.131,4.111,5.07,5.07,0,0,1,2.7.8,5.349,5.349,0,0,1,7.1.245a6.355,6.355,0,0,1,3.647,3.11A6.456,6.456,0,0,1,11.757,7.13,3.781,3.781,0,0,1,10.41,9.867L9.2,7.765a2.117,2.117,0,0,0,.444-1.489,4.293,4.293,0,0,0-.634-1.914A4.054,4.054,0,0,0,6.657,2.33a3.532,3.532,0,0,0-2.838.414,3.278,3.278,0,0,0-1.664,2.1,3.989,3.989,0,0,0,.616,2.943A5.37,5.37,0,0,0,4.527,9.751a1.667,1.667,0,0,0,1.809.092l.319-.184L4.935,6.677Z" transform="translate(67.355 36.701)"/>
      <path id="Path_698" data-name="Path 698" class="cls-1" d="M11.792,5.062A5.331,5.331,0,0,1,11.51,9.2a5.239,5.239,0,0,1-3.366,2.486,5.34,5.34,0,0,1-4.2-.3A5.265,5.265,0,0,1,1.464,8.053L0,2.99,10.327,0ZM3.331,7.432A2.941,2.941,0,0,0,4.9,9.44a3.743,3.743,0,0,0,2.646.082A3.484,3.484,0,0,0,9.681,8.049a3.052,3.052,0,0,0,.2-2.514L9.05,2.657,2.5,4.554Z" transform="translate(73.589 52.569)"/>
      <path id="Path_699" data-name="Path 699" class="cls-1" d="M2.138,3.143,2.9,9.675l-1.892.22L0,1.241,10.68,0l.987,8.5-1.892.22-.74-6.38-2.442.284.64,5.51-1.861.216-.639-5.51Z" transform="translate(76.756 65.92)"/>
      <path id="Path_700" data-name="Path 700" class="cls-1" d="M3.008,9.408a2.522,2.522,0,0,1-1.752-.7A3.66,3.66,0,0,1,.262,7.037,7.44,7.44,0,0,1,0,4.826,5.835,5.835,0,0,1,1.014,1.282,3.285,3.285,0,0,1,3.607,0L3.559,2.258A1.746,1.746,0,0,0,2.314,3,3.436,3.436,0,0,0,1.86,4.866Q1.813,7.093,3.026,7.119a1.04,1.04,0,0,0,.533-.127,1.3,1.3,0,0,0,.382-.307,2.18,2.18,0,0,0,.287-.517,4.938,4.938,0,0,0,.212-.579q.066-.237.183-.664l.323-1.5Q5.7.382,7.991.431A2.671,2.671,0,0,1,10.284,1.7a5.524,5.524,0,0,1,.777,3.221A5.219,5.219,0,0,1,10.118,8.1a3.016,3.016,0,0,1-2.345,1.21l.048-2.273Q9.162,6.8,9.2,4.883a3.211,3.211,0,0,0-.282-1.566.975.975,0,0,0-.871-.579.911.911,0,0,0-.847.474,5.639,5.639,0,0,0-.546,1.464L6.365,6.144Q5.588,9.463,3.008,9.408Z" transform="translate(77.596 76.711)"/>
      <path id="Path_701" data-name="Path 701" class="cls-1" d="M10.661,3.568,0,2.179.283,0,10.945,1.389Z" transform="translate(77.055 87.671)"/>
      <path id="Path_702" data-name="Path 702" class="cls-1" d="M7.124,6.389,5.706,11.816,0,10.323.435,8.658l1.109.068.035-.134a3.749,3.749,0,0,1-.462-1.605,6.659,6.659,0,0,1,.225-2.411A6.081,6.081,0,0,1,3.872.759,5.063,5.063,0,0,1,8.024.209a5.354,5.354,0,0,1,3.525,2.7,6.36,6.36,0,0,1,.411,4.777,6.452,6.452,0,0,1-1.934,3.393,3.78,3.78,0,0,1-2.881,1l.614-2.349a2.117,2.117,0,0,0,1.362-.748,4.3,4.3,0,0,0,.893-1.808,4.055,4.055,0,0,0-.246-3.1,3.535,3.535,0,0,0-2.31-1.7A3.277,3.277,0,0,0,4.8,2.7,3.989,3.989,0,0,0,3.172,5.229,5.367,5.367,0,0,0,3.04,7.863,1.667,1.667,0,0,0,4.263,9.2l.357.093.87-3.33Z" transform="translate(74.084 92.498)"/>
      <path id="Path_703" data-name="Path 703" class="cls-1" d="M10.625,12.226l-.907,1.916L0,9.541l.947-2,9.19-2.363.059-.125L3.6,1.93,4.515,0l9.717,4.6-.946,2L4.048,8.959l-.059.125Z" transform="translate(68.913 104.489)"/>
    </g>
  </g>
  <ellipse id="Ellipse_28" data-name="Ellipse 28" class="cls-1" cx="2.765" cy="2.766" rx="2.765" ry="2.766" transform="translate(3.649 62.883)"/>
  <ellipse id="Ellipse_29" data-name="Ellipse 29" class="cls-1" cx="2.765" cy="2.766" rx="2.765" ry="2.766" transform="translate(132.358 128.033)"/>
  <ellipse id="Ellipse_30" data-name="Ellipse 30" class="cls-1" cx="2.765" cy="2.766" rx="2.765" ry="2.766" transform="translate(54.948 4.892)"/>
</svg>
