<svg xmlns="http://www.w3.org/2000/svg" width="30" height="30" viewBox="0 0 30 30">
  <g id="_035-whatsapp" data-name="035-whatsapp" transform="translate(0 -0.001)">
    <path id="Path_7" data-name="Path 7" d="M7.256,27.86a14.89,14.89,0,0,0,7.691,2.13A15.077,15.077,0,0,0,30,15,14.995,14.995,0,1,0,2.141,22.745L0,30ZM1.768,15a13.174,13.174,0,1,1,6.09,11.171l-.338-.216L2.6,27.4,4.051,22.48l-.216-.338A13.235,13.235,0,0,1,1.768,15Zm0,0" transform="translate(0 0)"/>
    <path id="Path_8" data-name="Path 8" d="M121.332,99.468a13.247,13.247,0,0,0,10.624,10.624c1.745.332,4.307.382,5.559-.869l.7-.7a1.865,1.865,0,0,0,0-2.638l-2.791-2.791a1.865,1.865,0,0,0-2.638,0l-.7.7a1.241,1.241,0,0,1-1.66.005l-2.784-2.9-.013-.013a1.1,1.1,0,0,1,0-1.548l.7-.7a1.864,1.864,0,0,0,0-2.638l-2.791-2.791a1.868,1.868,0,0,0-2.638,0l-.7.7h0c-1,1-1.332,3.129-.869,5.559Zm2.112-4.316c.732-.716.693-.729.774-.729a.108.108,0,0,1,.076.032c2.941,2.956,2.823,2.783,2.823,2.867a.105.105,0,0,1-.032.076l-.7.7a2.851,2.851,0,0,0-.007,4.026l2.785,2.9.013.013a3,3,0,0,0,4.15,0l.7-.7a.108.108,0,0,1,.153,0c2.941,2.956,2.823,2.783,2.823,2.867a.105.105,0,0,1-.032.076l-.7.7c-.478.478-2,.764-3.988.386a11.49,11.49,0,0,1-9.227-9.227c-.379-1.986-.092-3.51.386-3.988Zm0,0" transform="translate(-114.03 -87.235)"/>
  </g>
</svg>
